<?xml version="1.0" encoding="UTF-8" standalone="no"?>
<svg
   xmlns:dc="http://purl.org/dc/elements/1.1/"
   xmlns:cc="http://creativecommons.org/ns#"
   xmlns:rdf="http://www.w3.org/1999/02/22-rdf-syntax-ns#"
   xmlns:svg="http://www.w3.org/2000/svg"
   xmlns="http://www.w3.org/2000/svg"
   id="svg8"
   version="1.1"
   viewBox="0 0 83.312001 16.256"
   height="0.63999999in"
   width="3.28in">
  <defs
     id="defs2" />
  <metadata
     id="metadata5">
    <rdf:RDF>
      <cc:Work
         rdf:about="">
        <dc:format>image/svg+xml</dc:format>
        <dc:type
           rdf:resource="http://purl.org/dc/dcmitype/StillImage" />
        <dc:title></dc:title>
      </cc:Work>
    </rdf:RDF>
  </metadata>
  <g
     transform="translate(0,-280.74398)"
     id="layer1">
    <rect
       ry="0"
       y="280.74399"
       x="0"
       height="16.256001"
       width="83.312004"
       id="rect4518-3"
       style="fill:#444444;fill-opacity:1;stroke-width:0.16350189" />
    <rect
       ry="2.639277"
       y="280.74399"
       x="0"
       height="16.256001"
       width="83.311996"
       id="rect4518"
       style="fill:#000000;fill-opacity:1;stroke-width:0.16350189" />
    <g
       transform="matrix(0.90043314,0,0,0.88630474,4.1475572,32.843397)"
       id="text4537"
       style="font-style:normal;font-weight:normal;font-size:10.58333302px;line-height:1.25;font-family:sans-serif;text-align:center;letter-spacing:0px;word-spacing:0px;text-anchor:middle;fill:#000000;fill-opacity:1;stroke:none;stroke-width:0.26458332"
       aria-label="SPIDER WEB">
      <path
         id="path4558"
         style="font-style:normal;font-variant:normal;font-weight:normal;font-stretch:normal;font-family:MumboSSK;-inkscape-font-specification:MumboSSK;text-align:center;text-anchor:middle;fill:#bb90fb;fill-opacity:1;stroke-width:0.26458332"
         d="m 19.680122,290.67643 q 0,0.889 -0.73025,1.42875 -0.656167,0.48683 -1.576917,0.48683 l -0.03175,-0.0212 h -2.116666 v -1.47108 q 0.232833,0 0.772583,0.0423 0.497417,0.0317 0.783167,0.0317 1.36525,0 1.36525,-0.40216 0,-0.29634 -0.783167,-0.93134 -1.068917,-0.86783 -1.449917,-1.31233 -0.772583,-0.92075 -0.772583,-1.92617 0,-0.68791 0.656167,-1.06891 0.550333,-0.3175 1.291166,-0.3175 h 2.307167 v 1.38641 q -0.1905,-0.0106 -0.677333,-0.0423 -0.433917,-0.0317 -0.687917,-0.0317 -1.36525,0 -1.36525,0.49742 0,0.24341 0.783167,0.83608 1.090083,0.83608 1.449916,1.2065 0.783167,0.8255 0.783167,1.60867 z" />
      <path
         id="path4560"
         style="font-style:normal;font-variant:normal;font-weight:normal;font-stretch:normal;font-family:MumboSSK;-inkscape-font-specification:MumboSSK;text-align:center;text-anchor:middle;fill:#bb90fb;fill-opacity:1;stroke-width:0.26458332"
         d="m 25.556848,287.57551 q 0,2.42358 -3.196166,2.42358 v -1.397 q 0.5715,0 1.058333,-0.254 0.592667,-0.30691 0.592667,-0.83608 0,-0.43392 -0.264584,-0.67733 -0.254,-0.254 -0.687916,-0.254 -0.529167,0 -0.814917,0.381 -0.28575,0.37041 -0.28575,0.91016 v 4.699 h -1.629833 v -4.62491 q 0,-1.28059 0.624416,-2.04259 0.687917,-0.83608 1.93675,-0.83608 1.153584,0 1.894417,0.66675 0.772583,0.6985 0.772583,1.8415 z" />
      <path
         id="path4562"
         style="font-style:normal;font-variant:normal;font-weight:normal;font-stretch:normal;font-family:MumboSSK;-inkscape-font-specification:MumboSSK;text-align:center;text-anchor:middle;fill:#bb90fb;fill-opacity:1;stroke-width:0.26458332"
         d="m 28.071382,292.57084 h -1.629833 v -7.35541 h 1.629833 z" />
      <path
         id="path4564"
         style="font-style:normal;font-variant:normal;font-weight:normal;font-stretch:normal;font-family:MumboSSK;-inkscape-font-specification:MumboSSK;text-align:center;text-anchor:middle;fill:#bb90fb;fill-opacity:1;stroke-width:0.26458332"
         d="m 35.065477,288.61268 q 0,1.778 -1.121834,2.86808 -1.11125,1.09008 -2.88925,1.09008 v -1.48166 q 1.132417,0 1.74625,-0.66675 0.613834,-0.67734 0.613834,-1.80975 0,-0.99484 -0.941917,-1.54517 -0.783167,-0.46567 -1.8415,-0.46567 v 5.969 h -1.629833 v -7.35541 h 2.053166 q 1.640417,0 2.772834,0.85725 1.23825,0.94191 1.23825,2.54 z" />
      <path
         id="path4566"
         style="font-style:normal;font-variant:normal;font-weight:normal;font-stretch:normal;font-family:MumboSSK;-inkscape-font-specification:MumboSSK;text-align:center;text-anchor:middle;fill:#bb90fb;fill-opacity:1;stroke-width:0.26458332"
         d="m 40.140019,292.57084 q -2.2225,0 -3.175,-0.67733 -1.153583,-0.81492 -1.153583,-2.95275 0,-1.82033 1.291166,-2.81517 1.164167,-0.89958 3.037417,-0.89958 v 1.48167 h -0.137583 q -1.11125,-0.0106 -1.651,0.254 -0.719667,0.34925 -0.994834,1.31233 h 2.783417 v 1.397 h -2.69875 q 0.254,1.51342 2.69875,1.50283 z" />
      <path
         id="path4568"
         style="font-style:normal;font-variant:normal;font-weight:normal;font-stretch:normal;font-family:MumboSSK;-inkscape-font-specification:MumboSSK;text-align:center;text-anchor:middle;fill:#bb90fb;fill-opacity:1;stroke-width:0.26458332"
         d="M 45.849893,292.57084 H 44.28356 q 0,-0.28575 0.03175,-0.85725 0.04233,-0.5715 0.04233,-0.85725 0,-0.71966 -0.391583,-0.97366 -0.3175,-0.20109 -1.090083,-0.20109 v -1.32291 q 0.518583,0 0.846666,-0.1905 0.41275,-0.24342 0.41275,-0.71967 0,-0.33867 -0.232833,-0.59267 -0.232833,-0.26458 -0.560917,-0.26458 -0.994833,0 -0.994833,3.09033 0,0.70909 0.05292,1.73567 0.0635,1.016 0.0635,1.15358 H 40.91806 v -4.54025 q 0,-1.50283 0.486833,-2.16958 0.5715,-0.79375 2.021417,-0.79375 0.878417,0 1.55575,0.67733 0.677333,0.66675 0.677333,1.54517 0,0.98425 -0.889,1.55575 1.0795,0.35983 1.0795,1.17475 z" />
      <path
         id="path4570"
         style="font-style:normal;font-variant:normal;font-weight:normal;font-stretch:normal;font-family:MumboSSK;-inkscape-font-specification:MumboSSK;text-align:center;text-anchor:middle;fill:#bb90fb;fill-opacity:1;stroke-width:0.26458332"
         d="m 57.396473,290.17901 q 0,0.97367 -0.592666,1.69333 -0.624417,0.78317 -1.566334,0.78317 -1.143,0 -1.87325,-0.73025 -0.455083,0.40217 -0.762,0.56092 -0.41275,0.21166 -0.920749,0.21166 -0.973667,0 -1.651,-0.71966 -0.677334,-0.73025 -0.677334,-1.70392 v -5.05883 h 1.545167 v 4.70958 q 0,0.47625 0.1905,0.80433 0.232833,0.40217 0.687917,0.40217 0.783166,0 0.783166,-1.24883 v -4.66725 h 1.640417 v 4.74133 q 0,0.45508 0.169333,0.77258 0.22225,0.39159 0.645583,0.39159 0.391584,0 0.613834,-0.37042 0.201083,-0.3175 0.201083,-0.73025 v -4.80483 h 1.566333 z" />
      <path
         id="path4572"
         style="font-style:normal;font-variant:normal;font-weight:normal;font-stretch:normal;font-family:MumboSSK;-inkscape-font-specification:MumboSSK;text-align:center;text-anchor:middle;fill:#bb90fb;fill-opacity:1;stroke-width:0.26458332"
         d="m 62.546921,292.57084 q -2.2225,0 -3.175,-0.67733 -1.153583,-0.81492 -1.153583,-2.95275 0,-1.82033 1.291167,-2.81517 1.164166,-0.89958 3.037416,-0.89958 v 1.48167 h -0.137583 q -1.11125,-0.0106 -1.651,0.254 -0.719667,0.34925 -0.994833,1.31233 h 2.783416 v 1.397 h -2.69875 q 0.254,1.51342 2.69875,1.50283 z" />
      <path
         id="path4574"
         style="font-style:normal;font-variant:normal;font-weight:normal;font-stretch:normal;font-family:MumboSSK;-inkscape-font-specification:MumboSSK;text-align:center;text-anchor:middle;fill:#bb90fb;fill-opacity:1;stroke-width:0.26458332"
         d="m 68.172127,290.47534 q 0,0.75142 -0.370417,1.37584 -0.4445,0.71966 -1.153583,0.71966 h -1.566333 v -1.397 q 1.566333,0 1.566333,-0.8255 0,-0.59266 -0.529167,-0.762 -0.275166,-0.0847 -1.037166,-0.0741 v -1.32292 q 0.465666,0 0.804333,-0.14816 0.455083,-0.20109 0.455083,-0.59267 0,-0.33867 -0.169333,-0.60325 -0.201083,-0.30692 -0.529167,-0.30692 -0.34925,0 -0.624416,0.27517 -0.264584,0.27517 -0.264584,0.635 v 5.12233 h -1.471083 v -5.19641 q 0,-2.32834 2.550583,-2.32834 0.867834,0 1.481667,0.65617 0.613833,0.64558 0.613833,1.524 0,1.016 -0.719666,1.4605 0.963083,0.58208 0.963083,1.78858 z" />
    </g>
  </g>
</svg>
