<?xml version="1.0" encoding="UTF-8" standalone="no"?>
<!-- Created with Inkscape (http://www.inkscape.org/) -->

<svg
   xmlns:dc="http://purl.org/dc/elements/1.1/"
   xmlns:cc="http://creativecommons.org/ns#"
   xmlns:rdf="http://www.w3.org/1999/02/22-rdf-syntax-ns#"
   xmlns:svg="http://www.w3.org/2000/svg"
   xmlns="http://www.w3.org/2000/svg"
   xmlns:sodipodi="http://sodipodi.sourceforge.net/DTD/sodipodi-0.dtd"
   xmlns:inkscape="http://www.inkscape.org/namespaces/inkscape"
   width="581.49902"
   height="745.21997"
   viewBox="0 0 581.49907 745.21998"
   id="svg2"
   version="1.1"
   inkscape:version="0.91 r13725"
   sodipodi:docname="cx10.svg">
  <defs
     id="defs4" />
  <sodipodi:namedview
     id="base"
     pagecolor="#ffffff"
     bordercolor="#666666"
     borderopacity="1.0"
     inkscape:pageopacity="0.0"
     inkscape:pageshadow="2"
     inkscape:zoom="0.49497475"
     inkscape:cx="448.04293"
     inkscape:cy="328.91353"
     inkscape:document-units="px"
     inkscape:current-layer="layer1"
     showgrid="false"
     units="px"
     inkscape:window-width="1920"
     inkscape:window-height="1027"
     inkscape:window-x="-8"
     inkscape:window-y="-8"
     inkscape:window-maximized="1" />
  <metadata
     id="metadata7">
    <rdf:RDF>
      <cc:Work
         rdf:about="">
        <dc:format>image/svg+xml</dc:format>
        <dc:type
           rdf:resource="http://purl.org/dc/dcmitype/StillImage" />
        <dc:title></dc:title>
      </cc:Work>
    </rdf:RDF>
  </metadata>
  <g
     inkscape:label="Layer 1"
     inkscape:groupmode="layer"
     id="layer1"
     transform="translate(0,-307.14218)">
    <path
       style="fill:#000000"
       d="m 352.64367,1051.0063 c -4.36238,-0.983 -8.58113,-2.3041 -9.375,-2.9358 -0.79388,-0.6318 -10.4434,-5.7887 -21.4434,-11.4599 -11,-5.6712 -20.5625,-10.7248 -21.25,-11.2302 -1.26407,-0.9291 -16.84209,-9.1953 -43.125,-22.8835 -7.90625,-4.11753 -18.22224,-9.65768 -22.92442,-12.31138 -4.70218,-2.65372 -8.92093,-4.82839 -9.375,-4.83263 -0.89641,-0.009 -2.86558,-1.01235 -15.20058,-7.75004 -21.6485,-11.82495 -37.99458,-20.61775 -49.375,-26.55957 -29.20405,-15.2477 -40.11629,-21.16159 -41.97342,-22.74749 -1.08539,-0.92686 -2.35714,-1.6852 -2.82613,-1.6852 -1.38469,0 -12.1678,-5.20476 -19.575452,-9.44864 -6.64476,-3.8068 -37.43364,-20.07406 -41.25,-21.79437 -11.64839,-5.25079 -21.31749,-10.56674 -23.35399,-12.83974 -1.79748,-2.00622 -3.08455,-6.66292 -4.5721,-16.54225 -2.07415,-13.77504 -3.24606,-20.08857 -8.70096,-46.875 -2.64851,-13.0056 -3.34919,-14.79345 -7.35521,-18.76755 -3.9398301,-3.90842 -4.4437901,-5.14833 -4.5726501,-11.25 -0.0796,-3.7716 -0.74539,-12.2012 -1.47942,-18.73245 -3.01558,-26.83229 -5.77978998,-70.69573 -4.66272998,-73.98996 0.83163998,-2.45252 6.62270998,-7.01805 21.35656008,-16.83699 19.04694,-12.69326 27.99084,-19.04264 31.80359,-22.57771 0.90739,-0.84131 9.64004,-7.00521 19.40586,-13.69755 19.8196,-13.582 31.213982,-21.65785 35.881052,-25.431 4.43239,-3.5834 22.38315,-16.45635 27.02839,-19.38274 7.4347,-4.6837 18.60746,-12.46885 21.01981,-14.64655 1.33276,-1.20312 2.86006,-2.1875 3.39401,-2.1875 0.53394,0 2.8185,-1.59896 5.07679,-3.55325 2.2583,-1.95429 11.4185,-8.50416 20.356,-14.55527 8.9375,-6.05112 19.0625,-13.07842 22.5,-15.61623 9.11915,-6.73241 15.74899,-8.77525 28.47929,-8.77525 l 10.89571,0 0.21875,-6.25 c 0.12025,-3.4375 0.3352,-7.79687 0.47752,-9.6875 0.14232,-1.89062 0.62242,-11.03125 1.06687,-20.3125 0.44445,-9.28125 1.35758,-25.875 2.02918,-36.875 0.6716,-11 1.48307,-25.90625 1.80325,-33.125 1.27295,-28.69905 6.6622,-105.18108 7.7218,-109.5846 0.3586,-1.49028 2.37922,-4.02153 4.49027,-5.625 2.11103,-1.60347 4.45231,-3.50166 5.20281,-4.21819 2.01879,-1.92741 7.95932,-4.00343 15.91415,-5.56146 6.4304,-1.25946 7.96752,-1.07823 17.5,2.0633 5.74772,1.89422 11.46262,4.37959 12.69979,5.52305 1.23715,1.14346 4.45551,3.07385 7.15188,4.28975 l 4.90252,2.21072 0.16485,112.63872 c 0.0906,61.95128 0.24732,116.79085 0.34811,121.8657 l 0.18325,9.22698 5.625,1.56729 c 3.09375,0.86201 12.65625,4.1076 21.25,7.21243 8.59375,3.10482 19.84378,7.08882 24.99998,8.85335 36.3476,12.43853 58.9232,19.99813 63.75,21.34718 3.0938,0.86468 11.8125,3.84059 19.375,6.61313 13.1693,4.82807 14.3933,5.04439 28.9803,5.1216 13.7849,0.073 15.8313,0.38516 21.5626,3.28945 4.5335,2.2973 6.9537,4.51151 8.5197,7.79472 2.349,4.92474 2.2806,4.88882 25.5703,13.42494 6.6731,2.44582 12.9782,4.44694 14.0113,4.44694 1.0331,0 5.6248,3.63746 10.2038,8.08326 l 8.3255,8.08326 -0.8843,7.22924 c -0.4864,3.97608 -1.6179,10.60424 -2.5145,14.72924 -1.6527,7.60365 -3.6755,19.13311 -8.1144,46.25 -4.0982,25.03507 -5.309,29.7937 -8.7468,34.375 -1.8268,2.43435 -3.4016,6.31565 -3.5504,8.75 -0.147,2.40625 -1.0643,8.3125 -2.0384,13.125 -3.0651,15.1427 -5.4967,29.49371 -7.6248,45 -1.1323,8.25 -2.7092,15.93152 -3.5043,17.07004 -0.7951,1.13852 -6.8354,8.73227 -13.423,16.875 -6.5876,8.14273 -12.6308,16.02672 -13.4294,17.51998 -0.7985,1.49328 -2.1809,3.46203 -3.0721,4.375 -1.82,1.8645 -33.0121,42.31537 -35.8415,46.48027 -1.0013,1.47385 -5.7825,8.0132 -10.625,14.5319 -13.1193,17.66046 -13.3818,18.01912 -19.0733,26.06157 -2.8978,4.09479 -5.9915,8.2096 -6.875,9.14403 -1.8089,1.91325 -9.3774,11.86631 -12.2313,16.08492 -7.1816,10.6159 -8.5567,10.8355 -22.5948,3.6077 -10.087,-5.1934 -13.5967,-5.58752 -13.4028,-1.505 0.3946,8.309 -2.1075,37.9903 -3.4875,41.3687 -3.2671,7.9985 -21.5745,12.0677 -37.82148,8.4066 z m 1.2153,-28.8665 c -0.37193,-21.1519 -1.0627,-47.17931 -1.31463,-49.53322 -0.0517,-0.48345 -2.74401,-2.17095 -5.98283,-3.75 -3.23882,-1.57904 -7.03434,-3.43349 -8.43449,-4.12099 -3.33181,-1.63597 -16.14158,-8.29993 -29.42675,-15.3085 -22.50281,-11.87134 -125.38977,-62.8165 -126.86186,-62.8165 -0.3944,0 -34.05104,-16.59375 -74.79251,-36.875 -40.741492,-20.28125 -75.074132,-36.875 -76.294772,-36.875 -1.51495,0 -2.02385,0.69428 -1.60341,2.1875 0.33875,1.20313 0.9768,3.98353 1.41788,6.17866 0.55752,2.77464 1.348,3.78165 2.59332,3.30378 1.21535,-0.46638 1.79135,0.18317 1.79135,2.0201 0,1.66106 -0.53478,2.37698 -1.38366,1.85235 -0.96573,-0.59685 -1.12633,0.41918 -0.53169,3.36372 1.48704,7.3635 2.00526,8.48093 3.6419,7.85289 1.14651,-0.43996 2.18889,2.69144 3.68601,11.0732 2.43978,13.6592 2.49735,14.6678 0.83744,14.6678 -0.6875,0 -1.25,-0.9375 -1.25,-2.08334 0,-1.14582 -0.33136,-1.75197 -0.73635,-1.34697 -0.40499,0.40498 -0.0289,3.89752 0.83575,7.7612 1.10311,4.92926 2.06855,6.83433 3.23634,6.38621 1.023,-0.39256 1.66426,0.26939 1.66426,1.71796 0,1.29614 -0.69651,2.58878 -1.5478,2.87254 -3.11376,1.03792 1.09464,6.85026 6.15178,8.49636 2.62406,0.85414 8.98977,3.91066 14.14602,6.79229 9.25014,5.16952 25.09116,13.53283 56.875002,30.02727 8.9375,4.63818 16.84163,8.90292 17.56471,9.47718 0.7231,0.57428 10.8481,5.93284 22.5,11.90794 11.65191,5.97509 25.03253,13.03 29.7347,15.67758 4.70219,2.64758 8.79149,4.81378 9.08734,4.81378 0.29586,0 2.63613,1.31659 5.20059,2.92574 2.56446,1.60916 17.03766,9.29408 32.16266,17.07762 37.74115,19.42205 50.33707,26.01695 65.625,34.35915 14.67782,8.0093 44.45663,23.1375 45.54453,23.1375 0.388,0 0.70547,-8.7188 0.70547,-19.375 0,-12.0834 0.47042,-19.375 1.25,-19.375 0.78152,0 1.25,7.5347 1.25,20.1041 0,15.3522 0.36337,19.9831 1.53732,19.5918 1.16405,-0.388 1.43633,-6.2557 1.12138,-24.1667 z m -12.6587,11.9708 c 0,-0.6875 0.5625,-1.25 1.25,-1.25 0.6875,0 1.25,0.5625 1.25,1.25 0,0.6875 -0.5625,1.25 -1.25,1.25 -0.6875,0 -1.25,-0.5625 -1.25,-1.25 z m 8.17838,-33.6636 c -0.39554,-0.64003 -0.14748,-1.51698 0.55123,-1.94881 0.69871,-0.43182 1.27039,0.0917 1.27039,1.16362 0,2.19569 -0.75008,2.51899 -1.82162,0.78519 z m -8.17838,-15.71141 c 0,-1.71875 0.5625,-3.125 1.25,-3.125 0.6875,0 1.25,1.40625 1.25,3.125 0,1.71875 -0.5625,3.125 -1.25,3.125 -0.6875,0 -1.25,-1.40625 -1.25,-3.125 z m 7.5,-1.25 c 0,-1.03125 0.5625,-1.875 1.25,-1.875 0.6875,0 1.25,0.84375 1.25,1.875 0,1.03125 -0.5625,1.875 -1.25,1.875 -0.6875,0 -1.25,-0.84375 -1.25,-1.875 z M 46.200268,872.16182 c 0,-1.07183 0.57167,-1.59545 1.27039,-1.16363 0.69871,0.43183 0.94677,1.30878 0.55122,1.94877 -1.07154,1.73381 -1.82161,1.41052 -1.82161,-0.78514 z m -7.5,-40.625 c 0,-0.72808 0.5625,-0.97613 1.25,-0.55123 0.6875,0.4249 1.25,1.0206 1.25,1.32377 0,0.30318 -0.5625,0.55123 -1.25,0.55123 -0.6875,0 -1.25,-0.5957 -1.25,-1.32377 z M 379.95025,1027.3594 c 0,-24.953 -1.4264,-51.99881 -2.7425,-51.99881 -1.0998,0 -1.25,68.48951 -0.1542,70.33291 1.9497,3.2798 2.8967,-2.7141 2.8967,-18.3341 z m -21.9198,-30.50636 c -0.47121,-12.5854 -1.21313,-22.52616 -1.64871,-22.0906 -1.05605,1.05606 -0.24595,68.25326 0.84294,69.92066 1.3315,2.0389 1.74779,-22.671 0.80577,-47.83006 z m 6.10649,44.09246 c -0.99154,-2.5838 -1.68667,-2.2794 -1.68667,0.7389 0,1.4155 0.53794,2.2413 1.19541,1.8349 0.65747,-0.4063 0.87854,-1.5645 0.49126,-2.5738 z m 20.21061,-66.60433 c -1.7192,-1.71918 -1.8604,2.8775 -0.9757,31.76453 l 0.9534,31.1299 0.3348,-31.1236 c 0.1841,-17.11797 0.043,-31.41485 -0.3125,-31.77083 z m 3.9306,45.70693 c -0.3468,-0.8594 -0.6305,-0.1563 -0.6305,1.5625 0,1.7187 0.2837,2.4219 0.6305,1.5625 0.3467,-0.8594 0.3467,-2.2656 0,-3.125 z m -25.16306,-30.68935 c -1.26302,-1.26302 -1.33631,0.4384 -0.68935,16.00185 l 0.64953,15.625 0.35232,-15.481 c 0.19378,-8.51457 0.0531,-15.7802 -0.3125,-16.14585 z m 27.10516,-1.81096 c 0.1953,-8.76579 -0.067,-15.93766 -0.5825,-15.9375 -0.5156,1.6e-4 -0.8532,8.57843 -0.7502,19.0628 0.2134,21.72321 0.8103,20.32341 1.3327,-3.1253 z m 22.5826,-22.1872 c 0.4387,-10.50506 0.2982,-15.22354 -0.3722,-12.5 -0.5924,2.40625 -1.3711,12.53125 -1.7305,22.5 -0.4012,11.13031 -0.2576,15.95424 0.3723,12.5 0.564,-3.09375 1.3427,-13.21875 1.7304,-22.5 z m -16.759,19.6875 -0.1565,-6.5625 -0.9353,5.625 c -0.8679,5.22019 -0.6561,7.5 0.697,7.5 0.3032,0 0.4808,-2.95312 0.3948,-6.5625 z m 38.098,-7.8125 c 1.8842,-25.83255 2.4334,-56.875 1.0061,-56.875 -1.3778,0 -1.718,2.63004 -2.1023,16.25 -0.087,3.09375 -0.568,16.59375 -1.0683,30 -0.5708,15.29353 -0.4729,23.67643 0.2627,22.5 0.6449,-1.03125 1.5007,-6.375 1.9018,-11.875 z m -4.7768,-25.76212 c 0.6591,-16.29798 0.5221,-22.36288 -0.5052,-22.36288 -0.9115,0 -1.4286,3.20193 -1.4634,9.0625 -0.03,4.98438 -0.2689,18.0625 -0.5317,29.0625 -0.3225,13.49436 -0.1406,17.82073 0.559,13.30038 0.5703,-3.6848 1.4439,-16.76293 1.9413,-29.0625 z m -65.66478,31.38712 c 0,-1.375 -0.5625,-2.5 -1.25,-2.5 -0.6875,0 -1.25,1.125 -1.25,2.5 0,1.375 0.5625,2.5 1.25,2.5 0.6875,0 1.25,-1.125 1.25,-2.5 z m 38.64968,-10.87201 c 0.1326,-6.01448 0.01,-10.66936 -0.2808,-10.3442 -1.0801,1.22367 -2.1057,22.60562 -1.0531,21.95509 0.6011,-0.37152 1.2014,-5.59643 1.3339,-11.61089 z m 38.1687,-10.62842 c 2.0359,-23.85018 2.4791,-49.51331 0.8267,-47.87457 -0.6932,0.6875 -1.561,10.8125 -1.9283,22.5 -0.3674,11.6875 -1.0274,26.59375 -1.4667,33.125 -1.2498,18.58 0.8656,12.19632 2.5683,-7.75043 z m -43.4343,8.7025 c -0.299,-1.55488 -0.555,-0.57707 -0.5689,2.17293 -0.014,2.75 0.2308,4.02219 0.5437,2.82707 0.3128,-1.19511 0.3242,-3.44511 0.025,-5 z m 20.2204,-11.51457 c -0.6453,-0.6938 -1.0307,2.94396 -0.927,8.75 l 0.1775,9.9375 0.927,-8.75 c 0.5102,-4.81564 0.4304,-9.28395 -0.1775,-9.9375 z m 30.0403,-14.4375 c 0.7609,-14.09375 1.7214,-29.28125 2.1343,-33.75 0.5348,-5.7872 0.3629,-7.75942 -0.5972,-6.85444 -1.4874,1.40191 -3.5744,27.02848 -4.3086,52.90403 -0.7172,25.27665 1.2027,16.7563 2.7715,-12.29959 z m -79.38347,0.625 c 0.39555,-12.375 1.08077,-29.95312 1.52267,-39.0625 0.5228,-10.77825 0.3654,-16.5625 -0.4507,-16.5625 -2.09891,0 -2.82222,9.10538 -3.62438,45.625 -0.53232,24.23442 -0.36862,34.61551 0.53222,33.75 0.74998,-0.72058 1.6056,-10.7796 2.02019,-23.75 z m 7.60917,4.85623 c 0.2977,-10.23343 0.8206,-28.16873 1.1621,-39.85623 0.4007,-13.7132 0.2244,-19.6983 -0.4971,-16.875 -1.3204,5.16705 -3.2485,77.229 -2.0363,76.10623 0.4565,-0.42284 1.0736,-9.14159 1.3713,-19.375 z m -14.89314,13.47711 c 0.0563,-1.83334 0.49111,-16.27084 0.96626,-32.08334 0.47516,-15.8125 1.20696,-31.78251 1.62623,-35.48891 0.48569,-4.29354 0.31555,-6.46279 -0.46886,-5.978 -1.33861,0.82731 -2.47154,18.14472 -3.61235,55.21691 -0.40196,13.0625 -0.25447,23.28125 0.32777,22.70834 0.58223,-0.57293 1.10466,-2.54168 1.16094,-4.375 z m -5.46099,-4.27084 c 2.21224,-64.88824 1.84809,-83.78358 -0.71668,-37.1875 -2.31172,41.99911 -2.37633,45 -0.96896,45 0.87925,0 1.52064,-2.97267 1.68564,-7.8125 z m 29.39303,-44.49736 c 0.5311,-13.30168 0.6204,-24.39686 0.1985,-24.65598 -1.4779,-0.90762 -2.3616,12.86713 -2.8926,45.09084 -0.4269,25.90487 -0.3058,29.58292 0.5965,18.125 0.6226,-7.90625 1.5665,-25.25819 2.0976,-38.55986 z m -34.18243,43.24736 c 0.37176,-4.29687 0.98894,-17.65625 1.3715,-29.6875 0.38256,-12.03125 1.04224,-26.41595 1.46593,-31.96599 l 0.77038,-10.09099 -9.85487,-3.48343 c -12.21983,-4.31936 -24.76085,-9.84193 -47.44212,-20.89159 -9.67297,-4.7124 -17.95317,-8.568 -18.40046,-8.568 -0.44727,0 -3.92365,-1.40625 -7.72526,-3.125 -3.80163,-1.71875 -10.02248,-4.53125 -13.8241,-6.25 -3.80161,-1.71875 -7.41099,-3.125 -8.02083,-3.125 -0.60983,0 -1.29628,-0.42309 -1.52546,-0.94019 -0.3882,-0.87595 -15.87291,-7.97762 -34.79166,-15.95631 -4.46875,-1.88462 -13.46875,-6.08678 -20,-9.3381 -6.53125,-3.25133 -16.09375,-7.73949 -21.25,-9.97369 -11.95092,-5.17833 -36.42182,-16.382 -49.5176,-22.67095 -5.57842,-2.67892 -10.70534,-4.87076 -11.39314,-4.87076 -0.6878,0 -11.873632,-5.11752 -24.857412,-11.37228 -12.98376,-6.25476 -26.1381,-12.38607 -29.23185,-13.62515 -3.09375,-1.23907 -12.77167,-5.65359 -21.50649,-9.81006 -20.58147,-9.79367 -20.41505,-9.77148 -20.18847,-2.69251 0.30967,9.67536 0.3733,9.94904 2.15397,9.26572 1.34541,-0.51627 1.89242,2.08497 2.57108,12.22674 0.47415,7.0854 1.17625,13.952 1.56025,15.25913 0.53151,1.8093 0.21617,2.19163 -1.32109,1.60173 -1.66377,-0.63845 -2.01625,0.15348 -2.00219,4.4984 0.0229,7.08358 1.16183,10.89828 3.25373,10.89828 0.95106,0 1.72921,1.125 1.72921,2.5 0,1.38889 -0.83334,2.5 -1.875,2.5 -2.12284,0 -2.34097,1.07864 -0.73201,3.61965 0.60759,0.95955 2.00522,1.39907 3.10586,0.97672 1.18655,-0.45532 2.00115,-0.12262 2.00115,0.81728 0,0.87186 5.20313,4.28047 11.5625,7.57471 6.35938,3.29424 12.40625,6.46069 13.4375,7.03656 1.03125,0.57588 24.09375,11.99422 51.250002,25.37408 45.84376,22.58719 65.21126,32.02675 110.625,53.91767 9.625,4.63957 36.625,18.02822 60,29.75254 23.375,11.72434 48.125,24.0834 55,27.4646 6.875,3.3812 14.46875,7.21889 16.875,8.5282 2.40625,1.30931 4.7521,2.39349 5.21301,2.40928 0.4609,0.0158 1.14218,-3.48692 1.51394,-7.78379 z m -4.6957,0.56531 c -0.33896,-0.54845 -0.0995,-1.81407 0.53208,-2.8125 0.89662,-1.41731 1.15258,-1.1987 1.16753,0.99719 0.0196,2.89129 -0.6154,3.5696 -1.69961,1.81531 z m -7.03125,-9.70159 c 0,-1.07182 0.5625,-1.60112 1.25,-1.17622 0.6875,0.4249 1.25,1.30185 1.25,1.94878 0,0.64692 -0.5625,1.17622 -1.25,1.17622 -0.6875,0 -1.25,-0.87695 -1.25,-1.94878 z m 7.53801,-6.23872 c 0.0334,-3.23264 0.20349,-3.40281 1.37952,-1.37953 0.96145,1.65408 0.95068,2.69882 -0.038,3.6875 -1.00603,1.00604 -1.36923,0.38119 -1.34151,-2.30797 z m 0.61836,-25.5625 c 0.47964,-9.28125 1.38024,-17.4177 2.00135,-18.081 0.67354,-0.7193 0.80515,5.58654 0.32614,15.625 -0.44174,9.25705 -1.34234,17.3935 -2.00135,18.081 -0.765,0.79808 -0.88291,-4.85099 -0.32614,-15.625 z m -6.80769,9.27084 c 0.06,-1.45619 0.35618,-1.75238 0.75521,-0.75521 0.36108,0.90233 0.31668,1.98047 -0.0986,2.39583 -0.41537,0.41536 -0.7108,-0.32292 -0.65653,-1.64062 z m -0.0113,-17.70834 c 0.0484,-0.51562 0.57128,-2.0625 1.16214,-3.4375 0.95195,-2.21531 1.08429,-2.10855 1.16214,0.9375 0.0484,1.89063 -0.47464,3.4375 -1.16214,3.4375 -0.6875,0 -1.21046,-0.42187 -1.16214,-0.9375 z m 8.04326,-16.5526 c -0.42153,-0.68205 -0.19058,-2.22892 0.51322,-3.4375 1.09769,-1.88494 1.28505,-1.7086 1.31765,1.2401 0.0398,3.59467 -0.53844,4.2886 -1.83087,2.1974 z M 26.200268,780.91182 c 0,-1.07183 0.5625,-1.60113 1.25,-1.17623 0.6875,0.4249 1.25,1.30185 1.25,1.94877 0,0.64693 -0.5625,1.17623 -1.25,1.17623 -0.6875,0 -1.25,-0.87695 -1.25,-1.94877 z m -1.82161,-12.96485 c -0.39555,-0.64 -0.14749,-1.51695 0.55122,-1.94878 0.69871,-0.43182 1.27039,0.0917 1.27039,1.16363 0,2.19566 -0.75007,2.51895 -1.82161,0.78515 z m -1.30339,-21.33638 c -0.4249,-0.6875 -0.17685,-1.25 0.55123,-1.25 0.72807,0 1.32377,0.5625 1.32377,1.25 0,0.6875 -0.24805,1.25 -0.55122,1.25 -0.30318,0 -0.89888,-0.5625 -1.32378,-1.25 z m -7.39631,-8.58224 c -0.53846,-0.87125 -0.64145,-1.92166 -0.22886,-2.33426 1.11871,-1.1187 2.33846,0.52662 1.73423,2.33931 -0.4234,1.27021 -0.71783,1.26923 -1.50537,-0.005 z M 388.74405,952.54809 c 0.05,-10.25706 0.9518,-38.77479 1.7302,-54.6875 0.3185,-6.51238 0.1286,-9.33541 -0.4907,-7.29335 -0.5558,1.83241 -1.3851,17.01991 -1.8431,33.75 -0.4579,16.73009 -1.1265,31.96523 -1.4857,33.85585 -0.3858,2.03038 -0.1008,3.4375 0.6962,3.4375 0.8377,0 1.3659,-3.43651 1.3931,-9.0625 z m 11.1884,4.09586 c 0.726,-1.35665 1.6083,-9.09102 1.9607,-17.1875 0.3523,-8.09647 1.182,-22.31461 1.8438,-31.59586 2.0747,-29.09836 1.4596,-37.2451 -2.2416,-29.6875 -2.2782,4.65211 -5.5432,80.9375 -3.4641,80.9375 0.3196,0 1.1751,-1.10999 1.9012,-2.46664 z m 18.7678,-1.28336 c 0,-0.6875 -0.5625,-1.25 -1.25,-1.25 -0.6875,0 -1.25,0.5625 -1.25,1.25 0,0.6875 0.5625,1.25 1.25,1.25 0.6875,0 1.25,-0.5625 1.25,-1.25 z m 34.3039,-10.9375 c 0.4329,-6.70312 1.3291,-18.75305 1.9916,-26.77761 1.4981,-18.14616 1.5254,-23.1357 0.1183,-21.59739 -0.5974,0.65313 -1.7489,12.4375 -2.5587,26.1875 -0.8099,13.75 -1.7108,27.10938 -2.002,29.6875 -0.2913,2.57813 -0.036,4.6875 0.567,4.6875 0.6031,0 1.4508,-5.48437 1.8837,-12.1875 z m 6.9956,-7.91934 c 0.6659,-9.90999 1.7704,-23.92441 2.4546,-31.14316 1.5393,-16.24267 1.554,-19.08795 0.094,-18.18562 -0.6336,0.39156 -1.4988,4.50288 -1.9228,9.13627 -0.4239,4.63339 -1.3038,12.92435 -1.9553,18.42435 -2.0024,16.90393 -2.7745,42.67949 -1.2323,41.13732 0.743,-0.74304 1.8958,-9.45917 2.5617,-19.36916 z m -52.5935,11.43902 c 0.7117,-1.3298 1.294,-5.61965 1.294,-9.53299 0,-3.91334 0.8064,-16.1847 1.7919,-27.26968 2.7161,-30.54896 3.3869,-44.52951 2.1364,-44.52951 -0.6172,0 -1.7921,0.80719 -2.6108,1.79374 -2.5864,3.11642 -7.3611,81.95626 -4.9634,81.95626 0.5819,0 1.6403,-1.08802 2.3519,-2.41782 z m 59.4672,-19.58724 c 1.0293,-9.55347 2.4239,-22.52831 3.0991,-28.83299 1.5275,-14.2624 1.5696,-22.91195 0.1115,-22.91195 -1.6894,0 -2.6338,3.35536 -2.6338,9.35801 0,2.97195 -0.8073,12.91032 -1.7941,22.08527 -2.3417,21.77306 -2.9617,39.97921 -1.305,38.32248 0.358,-0.35798 1.493,-8.46736 2.5223,-18.02082 z m -43.7398,8.5218 c -0.4086,-0.40862 -1.6763,0.19045 -2.8171,1.33126 -1.9322,1.93224 -1.9088,2.25804 0.3423,4.76096 l 2.4164,2.68678 0.4007,-4.01804 c 0.2203,-2.20992 0.066,-4.35236 -0.3423,-4.76096 z m -8.6734,2.54576 c 0.9133,-1.20312 1.6784,-4.73351 1.7003,-7.84529 0.022,-3.11179 0.5806,-10.14304 1.2417,-15.625 1.7925,-14.86458 4.1436,-55.66329 3.2587,-56.54824 -0.4236,-0.42358 -1.664,0.12363 -2.7563,1.21597 -1.5581,1.55802 -2.2394,6.6613 -3.1612,23.6756 -0.6462,11.9292 -1.8484,28.43946 -2.6716,36.68946 -1.9517,19.56166 -1.4435,23.4853 2.3884,18.4375 z m -19.0242,-18.75 c 0.4527,-9.45312 1.1638,-21.54687 1.5801,-26.875 0.4888,-6.2557 0.3045,-9.6875 -0.5201,-9.6875 -0.7918,0 -1.5767,8.43051 -2.0656,22.1875 -0.4337,12.20313 -1.0634,24.29688 -1.3992,26.875 -0.3358,2.57813 -0.1172,4.6875 0.4856,4.6875 0.6028,0 1.4665,-7.73437 1.9192,-17.1875 z m 79.3533,-14.6875 c 3.2397,-25.23946 4.1145,-38.125 2.5882,-38.125 -0.6475,0 -1.1779,0.14063 -1.1788,0.3125 -8e-4,0.17188 -1.4011,15.21875 -3.1117,33.4375 -1.7107,18.21875 -3.0534,33.6875 -2.9838,34.375 0.2245,2.21655 2.0551,-9.5025 4.6861,-30 z m -51.6793,22.27153 c 2.2871,-3.49056 3.5145,-12.68622 4.9748,-37.27153 0.4492,-7.5625 1.3139,-20.19193 1.9215,-28.06539 0.6077,-7.87347 0.7957,-14.62347 0.418,-15 -1.2766,-1.27262 -6.7241,6.30658 -6.7241,9.35547 0,3.72182 -3.425,55.76848 -4.3776,66.52242 -0.7507,8.47555 0.3254,9.74259 3.7874,4.45903 z m 57.8806,-23.52153 c 1.4432,-12.375 2.954,-26.15625 3.3575,-30.625 0.4035,-4.46875 1.03,-9.67187 1.3922,-11.5625 0.7858,-4.1015 -1.4657,-4.6737 -2.4592,-0.625 -0.3796,1.54688 -1.0431,7.03125 -1.4745,12.1875 -0.4314,5.15625 -1.869,19.21875 -3.1946,31.25 -2.7981,25.39474 -2.7537,24.62482 -1.3285,23.0625 0.5958,-0.65313 2.264,-11.3125 3.7071,-23.6875 z m -49.1252,11.69221 c 0.9755,-4.44137 1.0633,-5.31241 2.945,-29.19221 0.7585,-9.625 1.925,-23.40625 2.5923,-30.625 0.6673,-7.21875 1.2323,-14.23437 1.2554,-15.59027 0.042,-2.45372 0.031,-2.45372 -2.3353,0 -1.4636,1.51766 -2.6678,5.1079 -3.1329,9.34027 -0.4155,3.78125 -1.0418,9.125 -1.3917,11.875 -0.35,2.75 -0.8605,9.78125 -1.1346,15.625 -0.274,5.84375 -0.9167,18.16619 -1.4281,27.38319 -0.6606,11.90532 -0.5386,16.51639 0.4213,15.92316 0.7431,-0.45926 1.7369,-2.59187 2.2086,-4.73914 z m 55.8307,-8.8673 c 0.5614,-4.9912 1.576,-14.41866 2.2545,-20.94991 0.6786,-6.53125 1.8045,-17.16725 2.502,-23.63555 1.2014,-11.1411 1.013,-14.04645 -0.7938,-12.23965 -1.1566,1.1566 -3.8904,19.22781 -4.8162,31.83643 -0.4407,6.00257 -1.3107,14.85127 -1.9333,19.66377 -0.6225,4.8125 -1.1493,10.69062 -1.1705,13.0625 -0.07,7.78948 2.8538,2.0732 3.9573,-7.73759 z m -48.9934,2.97885 c 0,-0.74082 2.0923,-20.81386 5.0294,-48.30376 0.6611,-6.1875 1.7218,-15.74949 2.357,-21.24885 0.6353,-5.49937 0.9068,-10.24714 0.6033,-10.5506 -0.3034,-0.30345 -1.3657,0.26221 -2.3605,1.25705 -2.3469,2.34688 -5.2011,23.38743 -6.8562,50.5424 -0.7124,11.6875 -1.6217,23.36079 -2.0208,25.94064 -0.6092,3.93892 -0.4073,4.56853 1.2599,3.92876 1.092,-0.41902 1.9865,-1.12356 1.9879,-1.56564 z m 55.4719,-3.61626 c 1.6853,-5.73449 8.6506,-66.60414 7.7273,-67.52752 -0.4002,-0.40012 -1.4926,0.31888 -2.4278,1.59776 -1.7059,2.33297 -3.7033,17.56192 -5.8191,44.36726 -0.624,7.90625 -1.4811,16.48438 -1.9046,19.0625 -0.7815,4.75781 1.1694,6.76973 2.4242,2.5 z m -48.1565,-5.74361 c 2.245,-2.38968 2.9584,-5.21815 3.8622,-15.3125 0.6097,-6.80976 2.3899,-24.31951 3.9559,-38.91056 1.566,-14.59105 2.4417,-26.9348 1.946,-27.43057 -0.4958,-0.49575 -1.9857,0.19238 -3.3109,1.52919 -1.9639,1.981 -2.8792,6.59205 -4.9488,24.93055 -1.3966,12.375 -3.1309,29.53125 -3.8539,38.125 -0.7231,8.59375 -1.6122,16.60938 -1.9758,17.8125 -0.9264,3.06546 1.0691,2.72239 4.3253,-0.74361 z m 8.6821,-11.06889 c 0.825,-0.825 1.5,-3.39947 1.5,-5.72105 0,-2.32158 1.0946,-11.63095 2.4324,-20.6875 4.1808,-28.30202 6.9269,-54.59145 5.7025,-54.59145 -1.5806,0 -4.2702,3.48563 -4.9471,6.4115 -0.3772,1.62993 -0.9145,6.3385 -1.194,10.4635 -0.2795,4.125 -1.419,14.8125 -2.5322,23.75 -2.4905,19.99605 -4.1536,41.875 -3.1831,41.875 0.3968,0 1.3965,-0.675 2.2215,-1.5 z m 53.2453,-3.8125 c 0.2986,-1.54687 1.5103,-10.40625 2.6926,-19.6875 1.1823,-9.28125 2.6122,-19.6875 3.1775,-23.125 2.0236,-12.30513 2.735,-21.875 1.6262,-21.875 -0.9431,0 -6.2486,35.01897 -9.1377,60.3125 -0.7829,6.85409 0.5018,10.2783 1.6414,4.375 z m -0.4557,-38.87819 c 2.3739,-14.55271 2.5047,-18.7703 0.5208,-16.78636 -0.8231,0.82309 -2.3501,10.91639 -4.9183,32.50995 -2.3055,19.38383 -2.2493,27.10436 0.084,11.5921 0.9308,-6.1875 2.8717,-18.47956 4.3131,-27.31569 z m -150.42792,29.50319 c -0.31441,-1.20312 -0.57166,-0.21875 -0.57166,2.1875 0,2.40625 0.25725,3.39063 0.57166,2.1875 0.3144,-1.20312 0.3144,-3.17187 0,-4.375 z m 6.63834,0.86373 c 0,-3.0642 -0.49509,-4.76779 -1.25,-4.30123 -0.6875,0.4249 -1.25,2.7081 -1.25,5.07377 0,2.36568 0.5625,4.30123 1.25,4.30123 0.6875,0 1.25,-2.2832 1.25,-5.07377 z m 5.29048,-0.63204 c -0.85282,-4.46129 -1.54322,-3.71554 -1.52135,1.64331 0.0125,2.98796 0.39697,4.09169 1.06122,3.04419 0.57313,-0.90381 0.78023,-3.01319 0.46013,-4.6875 z m 6.8134,2.97144 c -0.399,-0.99717 -0.6952,-0.70098 -0.7552,0.75521 -0.054,1.3177 0.2412,2.05599 0.6565,1.64062 0.4154,-0.41536 0.4598,-1.4935 0.099,-2.39583 z m 9.1461,-2.89063 c 0,-3.09375 -0.5625,-5.625 -1.25,-5.625 -1.3805,0 -1.7441,9.08923 -0.4166,10.41666 1.4769,1.47692 1.6666,0.93134 1.6666,-4.79166 z m 77.7152,2.1875 c 1.1023,-1.89062 2.4421,-6.53125 2.9774,-10.3125 1.4043,-9.91985 1.3144,-9.26984 3.5454,-25.625 1.1253,-8.25 2.5951,-19.21875 3.2661,-24.375 0.671,-5.15625 1.5784,-12.09614 2.0163,-15.42199 0.7809,-5.93017 0.7449,-6.01487 -1.8649,-4.385 -4.2674,2.66504 -5.4266,8.25844 -9.5448,46.05699 -1.0861,9.96875 -2.5116,21.889 -3.1677,26.48944 -0.6561,4.60045 -1.193,8.95982 -1.193,9.6875 0,2.40531 1.9301,1.3761 3.9652,-2.11444 z m -108.96518,-2.8125 c 0,-2.75 0.14062,-5.28311 0.3125,-5.62913 0.31662,-0.63744 -9.10733,-5.12928 -29.86739,-14.23601 -6.28644,-2.75764 -18.98255,-8.69736 -28.2136,-13.19937 -9.23104,-4.50203 -17.30874,-8.18549 -17.95045,-8.18549 -0.64171,0 -5.80541,-2.25 -11.4749,-5 -5.66949,-2.75 -10.6067,-5 -10.97159,-5 -0.36488,0 -7.75097,-3.375 -16.41352,-7.5 -8.66255,-4.125 -16.20505,-7.5 -16.76111,-7.5 -0.55608,0 -6.81017,-2.73039 -13.89799,-6.06752 -7.08782,-3.33714 -15.9807,-7.49248 -19.76195,-9.23409 -3.78125,-1.74161 -10.64841,-4.91748 -15.26037,-7.05748 -4.61196,-2.14 -8.67342,-3.89091 -9.02546,-3.89091 -0.9375,0 -12.51451,-5.2697 -34.59175,-15.74571 -10.72642,-5.08986 -19.95738,-9.25429 -20.51326,-9.25429 -0.55587,0 -10.060962,-4.4399 -21.122422,-9.86644 -11.06145,-5.42653 -22.64299,-10.98732 -25.73674,-12.35731 -3.09375,-1.36999 -14.0625,-6.24223 -24.375,-10.82721 -20.53332,-9.12922 -24.2101,-10.69904 -25.05881,-10.69904 -0.3114,0 -0.56619,1.44415 -0.56619,3.20924 0,2.70013 0.42005,3.07591 2.64789,2.36882 1.92584,-0.61124 2.47974,-0.37856 2.03125,0.85327 -0.33915,0.93152 -1.24945,1.55305 -2.02289,1.38117 -0.77344,-0.17187 -1.38956,0.95313 -1.36917,2.5 0.0316,2.39821 2.65538,3.9964 17.8125,10.84985 9.77648,4.42054 24.52542,11.25505 32.77542,15.18781 36.131262,17.22369 44.578502,21.14984 45.504582,21.14984 0.54183,0 11.89997,5.11334 25.24028,11.36296 13.34033,6.24964 26.22389,12.08887 28.63014,12.97608 2.40625,0.88721 15.34375,6.80081 28.75,13.14132 13.40625,6.34052 29.01646,13.4264 34.68936,15.74641 5.6729,2.32003 19.09777,8.44935 29.83306,13.62073 10.73528,5.17137 19.81572,9.4025 20.17873,9.4025 0.67783,0 17.72386,7.70735 36.54885,16.52554 10.74174,5.03175 25.7666,11.24721 30.94566,12.80157 2.21234,0.66396 3.0714,0.22125 3.98326,-2.05279 1.07969,-2.69253 1.16827,-2.60957 1.24184,1.16318 0.0535,2.74256 0.68844,4.0625 1.95424,4.0625 1.35416,0 1.875,-1.38889 1.875,-5 z m 35.88408,-1.54792 c -0.299,-1.55489 -0.555,-0.57708 -0.5689,2.17292 -0.014,2.75 0.2308,4.02219 0.5437,2.82708 0.3128,-1.19512 0.3242,-3.44512 0.025,-5 z m 125.8824,1.86042 c 0.3933,-1.89062 1.5774,-9.34375 2.6313,-16.5625 1.054,-7.21875 2.6947,-17.90625 3.6462,-23.75 3.0723,-18.87 3.4396,-25 1.4982,-25 -1.9275,0 -3.2922,5.27586 -3.2922,12.72796 0,5.33432 -1.2998,14.90054 -5.0723,37.33188 -1.3352,7.93917 -2.4277,15.3923 -2.4277,16.5625 0,3.41791 2.2349,2.44747 3.0165,-1.30984 z m -118.9438,-7.9898 c -0.9264,-0.92639 -1.5714,-0.17425 -2.1638,2.52325 -1.2189,5.54931 0.8111,8.11505 2.3035,2.91148 0.789,-2.75132 0.7427,-4.55231 -0.1397,-5.43473 z m 8.4273,-3.76644 c 0,-1.95593 -0.45,-3.55626 -1,-3.55626 -2.2273,0 -4,3.24343 -4,7.31874 0,4.23955 0.046,4.27725 2.5,2.05626 1.384,-1.25252 2.5,-3.84996 2.5,-5.81874 z m 65.9277,4.88124 c 1.7765,-2.24979 4.9647,-19.34613 7.824,-41.9549 1.3638,-10.78417 3.3743,-24.01407 4.4677,-29.39977 1.0933,-5.3857 1.6635,-10.11663 1.2669,-10.51318 -1.77,-1.77001 -5.5521,4.1599 -6.8082,10.67449 -1.1642,6.03742 -5.0349,34.71164 -8.7668,64.94336 -0.949,7.68804 -0.4182,9.33325 2.0164,6.25 z m 52.1972,-1.25 c 0.9413,-2.69199 6.5128,-41.30387 6.7405,-46.71424 0.1193,-2.83346 0.7609,-7.0485 1.4258,-9.36675 1.7068,-5.95148 1.5491,-11.42826 -0.3114,-10.80812 -0.9025,0.30086 -2.1666,5.54866 -3.1114,12.91667 -2.4373,19.0087 -6.7859,49.57561 -7.5006,52.72244 -0.6687,2.94423 1.7769,4.05301 2.7571,1.25 z M 36.352858,864.51684 c -1.08944,-1.87346 -1.33336,-1.92746 -1.36458,-0.30209 -0.0404,2.1051 1.27399,4.0005 2.1599,3.11459 0.29219,-0.29219 -0.0657,-1.55781 -0.79532,-2.8125 z m 375.061492,-2.47499 c 2.1119,-1.91126 3.2957,-9.18126 1.495,-9.18126 -1.7908,0 -5.4591,5.58814 -5.4591,8.31626 0,3.47097 0.8738,3.66164 3.9641,0.865 z m 71.1392,-14.69787 c 1.3696,-6.704 3.2727,-17.90844 4.2293,-24.89874 0.9565,-6.99031 2.8957,-18.89715 4.3093,-26.45965 1.4136,-7.5625 2.5787,-15.14062 2.5891,-16.84028 l 0.019,-3.09027 -2.6857,2.68576 c -2.1128,2.11275 -3.3246,6.50568 -5.6801,20.59028 -1.6469,9.84747 -3.5389,22.40451 -4.2045,27.90451 -0.6655,5.5 -2.047,14.92213 -3.0699,20.93805 -1.0229,6.01594 -1.8598,11.9021 -1.8598,13.08036 0,1.93218 0.1895,1.95284 1.9316,0.21069 1.0624,-1.06239 3.0522,-7.41671 4.4217,-14.12071 z M 35.355308,857.54809 c -1.26935,-6.59034 -2.96434,-9.7749 -2.16229,-4.0625 0.83503,5.94716 1.45466,8.125 2.31178,8.125 0.34813,0 0.28086,-1.82812 -0.14949,-4.0625 z m 358.344942,1.5625 c 0,-0.6875 -0.5625,-1.25 -1.25,-1.25 -0.6875,0 -1.25,0.5625 -1.25,1.25 0,0.6875 0.5625,1.25 1.25,1.25 0.6875,0 1.25,-0.5625 1.25,-1.25 z m 136.6564,-1.5625 c 0.3726,-1.54687 1.5878,-9.28125 2.7005,-17.1875 1.1127,-7.90625 2.8891,-19.71875 3.9475,-26.25 2.807,-17.31962 3.3492,-23.52419 1.8526,-21.19795 -1.4039,2.18221 -4.7055,20.54039 -5.7231,31.82295 -0.3721,4.125 -1.7084,13.82813 -2.9697,21.5625 -1.2613,7.73438 -1.8864,14.0625 -1.3892,14.0625 0.4972,0 1.2088,-1.26562 1.5814,-2.8125 z m -182.34388,0.44199 c -0.65313,-0.61628 -4.28125,-2.39208 -8.0625,-3.9462 -3.78125,-1.55414 -16.4375,-7.44618 -28.125,-13.09344 -11.6875,-5.64726 -24.34375,-11.53293 -28.125,-13.07925 -8.249,-3.37338 -14.92188,-6.40106 -33.125,-15.02981 -20.25094,-9.59947 -29.32929,-13.73549 -35.625,-16.23045 -3.09375,-1.22604 -11.53125,-5.04285 -18.75,-8.4818 -18.41191,-8.77128 -30.16495,-14.01854 -31.39929,-14.01854 -0.57942,0 -8.236,-3.41821 -17.0146,-7.59601 -8.77861,-4.17781 -22.14861,-10.43021 -29.71111,-13.89423 -7.5625,-3.46401 -18.508612,-8.5565 -24.324712,-11.31662 -40.76063,-19.34369 -68.4216,-31.23228 -71.14731,-30.57884 -1.79675,0.43073 4.24068,3.65176 23.05417,12.29962 2.79519,1.28484 5.48654,2.33608 5.98079,2.33608 0.49424,0 12.55102,5.68049 26.79284,12.6233 14.24182,6.9428 30.675472,14.7547 36.519222,17.35976 5.84375,2.60507 16.83945,7.7527 24.43489,11.4392 14.49821,7.03682 18.01996,8.59 26.19011,11.5505 2.75,0.99648 8.52459,3.54777 12.83241,5.66952 4.30783,2.12175 8.07144,3.85772 8.36359,3.85772 0.4757,0 10.92795,4.76073 28.804,13.11949 3.4375,1.60736 11.3125,5.1814 17.5,7.9423 6.1875,2.76091 16.3125,7.36717 22.5,10.23615 6.1875,2.86897 14.625,6.51062 18.75,8.09257 4.125,1.58194 13.125,5.51795 20,8.74668 16.9481,7.9594 27.54056,12.74454 35,15.81126 3.4375,1.41323 8.5,3.59931 11.25,4.85798 5.40292,2.47289 9.41187,3.18606 7.4375,1.32306 z m 53.23148,-3.30746 c 1.1769,-1.41813 1.2314,-2.29663 0.206,-3.32203 -1.6563,-1.65635 -5.25,0.75861 -5.25,3.52805 0,2.31231 3.0576,2.18742 5.044,-0.20603 z m 19.9907,-3.13692 c 1.5141,-2.82906 1.5874,-7.43511 0.1184,-7.43511 -1.8352,0 -3.8448,3.1462 -4.6813,7.32909 -0.6697,3.34841 -0.4709,3.84212 1.2773,3.1713 1.1387,-0.43698 2.6173,-1.81635 3.2857,-3.06528 z m -34.682,0.80979 c 3.6654,-1.59934 18.0968,-15.77205 32.0126,-31.4388 3.0197,-3.3996 10.7541,-11.60191 17.1875,-18.22735 6.4335,-6.62544 11.6972,-12.67231 11.6972,-13.4375 0,-0.87897 -2.9917,-1.39125 -8.125,-1.39125 -4.5833,0 -8.125,-0.54488 -8.125,-1.25 0,-0.72823 4.1369,-1.25 9.9107,-1.25 7.3431,0 10.4196,-0.5089 11.875,-1.96429 3.4805,-3.48045 2.1593,-4.10186 -8.3482,-3.92662 -26.48,0.44162 -54.6875,-0.42257 -54.6875,-1.67545 0,-0.90106 10.87,-1.1717 34.4545,-0.85784 25.9339,0.34513 34.9754,0.0776 36.5606,-1.08144 1.1583,-0.84697 1.7087,-1.93721 1.2232,-2.42275 -1.0774,-1.07743 -19.6026,-1.48263 -87.8633,-1.92185 -28.87498,-0.18579 -53.62498,-0.76608 -54.99998,-1.28955 -4.2824,-1.63031 4.87981,-1.7047 83.12498,-0.67498 57.4719,0.75632 67.4932,0.39133 64.7438,-2.3581 -0.6818,-0.68183 -155.21437,-2.06834 -210.05628,-1.88469 -11.697,0.0391 -17.1875,-0.38149 -17.1875,-1.31684 0,-0.99571 31.843,-1.1287 115.57193,-0.48265 106.77965,0.82391 115.72995,0.73375 117.64885,-1.18513 1.1422,-1.14227 1.7903,-2.36337 1.4402,-2.71353 -1.0548,-1.05477 -54.3885,-1.78918 -168.41098,-2.31905 -59.46875,-0.27637 -112.85937,-0.54135 -118.64584,-0.58887 -5.78645,-0.0475 -10.10542,-0.50178 -9.5977,-1.0095 0.86325,-0.86325 145.79173,-0.69883 252.46362,0.28642 26.0398,0.24051 48.1179,0.14073 49.0625,-0.22173 0.9446,-0.36247 1.7174,-1.4426 1.7174,-2.4003 0,-1.37571 -2.821,-1.75701 -13.4375,-1.81626 -7.3906,-0.0412 -31.4375,-0.27255 -53.4375,-0.514 -91.88689,-1.00844 -280.94351,-0.84247 -282.03357,0.24759 -0.9401,0.9401 15.90359,9.36317 38.28359,19.14456 6.7052,2.93058 83.76176,37.78162 92.5,41.83579 5.5,2.55177 11.96875,5.35931 14.375,6.23899 2.40625,0.87967 14.21875,6.20997 26.25,11.8451 31.09137,14.56238 37.43205,17.26702 50,21.32766 8.65237,2.79552 27.14138,3.18622 32.85268,0.69421 z m 37.1473,-65.7449 c 0,-0.6875 0.8438,-1.25 1.875,-1.25 1.0313,0 1.875,0.5625 1.875,1.25 0,0.6875 -0.8437,1.25 -1.875,1.25 -1.0312,0 -1.875,-0.5625 -1.875,-1.25 z m -227.49998,-8.63297 c 0,-0.62314 1.125,-0.83879 2.5,-0.47922 1.375,0.35958 2.5,0.86941 2.5,1.13298 0,0.26356 -1.125,0.47921 -2.5,0.47921 -1.375,0 -2.5,-0.50984 -2.5,-1.13297 z m 184.37498,-0.11703 c -0.4249,-0.6875 -0.1768,-1.25 0.5512,-1.25 0.7281,0 1.3238,0.5625 1.3238,1.25 0,0.6875 -0.248,1.25 -0.5512,1.25 -0.3032,0 -0.8989,-0.5625 -1.3238,-1.25 z m -78.74998,-8.75 c 0.4249,-0.6875 1.5831,-1.25 2.57377,-1.25 0.99068,0 1.80123,0.5625 1.80123,1.25 0,0.6875 -1.1582,1.25 -2.57378,1.25 -1.41557,0 -2.22612,-0.5625 -1.80122,-1.25 z m -72.10938,-5.85389 c 0.90234,-0.36108 1.98048,-0.31668 2.39584,0.0986 0.41536,0.41536 -0.32292,0.7108 -1.64062,0.65652 -1.45619,-0.06 -1.75238,-0.35617 -0.75522,-0.7552 z m -65.39062,-7.89611 c 0.4249,-0.6875 1.30185,-1.25 1.94877,-1.25 0.64693,0 1.17623,0.5625 1.17623,1.25 0,0.6875 -0.87695,1.25 -1.94877,1.25 -1.07183,0 -1.60113,-0.5625 -1.17623,-1.25 z m 325.72068,88.92403 c 0.053,-1.12697 0.3584,-3.17403 0.6796,-4.54903 0.3212,-1.375 1.0896,-6.4375 1.7075,-11.25 0.6179,-4.8125 2.8208,-18.59375 4.8954,-30.625 4.7586,-27.59641 4.7754,-27.7498 3.1096,-28.34546 -2.0409,-0.72974 -3.2358,4.42052 -9.87,42.53961 -1.0596,6.08804 -2.1723,13.40054 -2.4727,16.25 -0.3004,2.84946 -1.131,8.21075 -1.8456,11.91396 -0.7147,3.70322 -1.2808,7.92197 -1.2579,9.375 0.041,2.58798 0.092,2.58167 2.5,-0.30909 1.3521,-1.62305 2.5015,-3.87304 2.5541,-5 z m 50.5608,-17.67403 c 2.0428,-16.17149 5.255,-36.49249 6.3722,-40.3125 0.3519,-1.20312 0.1626,-2.1875 -0.4207,-2.1875 -1.6676,0 -10.5606,55.33599 -10.23,63.65509 0.217,5.46097 2.0799,-3.75008 4.2785,-21.15509 z m -132.3208,20.59287 c 1.0489,-1.04891 1.5595,-2.81298 1.1347,-3.92015 -0.6969,-1.8159 -1.0148,-1.79378 -3.2464,0.22587 -2.666,2.4127 -3.312,5.60141 -1.1347,5.60141 0.7366,0 2.1975,-0.8582 3.2464,-1.90712 z M 32.054158,842.62621 c -0.39903,-0.99716 -0.69523,-0.70097 -0.7552,0.75522 -0.0542,1.3177 0.24115,2.05599 0.65652,1.64062 0.41537,-0.41536 0.45977,-1.4935 0.0986,-2.39584 z m 397.749792,-2.70563 c 0.9663,-2.53884 1.398,-4.975 0.9593,-5.4137 -1.5865,-1.58648 -5.813,3.7951 -5.813,7.40161 0,4.9606 2.617,3.88875 4.8537,-1.98791 z m 68.868,-5.63279 c 0.6954,-2.50371 1.2675,-6.62668 1.2713,-9.16214 0,-2.53546 0.7778,-8.16046 1.7199,-12.5 0.9421,-4.33954 2.3963,-12.67131 3.2316,-18.51506 0.8353,-5.84375 2.0229,-12.3125 2.6392,-14.375 0.6163,-2.0625 1.4548,-7.608 1.8634,-12.32334 0.5894,-6.80171 0.4005,-8.46184 -0.9146,-8.03371 -0.9116,0.29681 -2.3154,2.74856 -3.1195,5.44835 -1.9849,6.66422 -9.4673,52.9057 -11.1079,68.64682 -0.8318,7.98068 -0.7346,8.59199 1.1207,7.05222 1.1173,-0.92727 2.6004,-3.73443 3.2959,-6.23814 z m -80.4397,2.88361 c 1.5592,-2.37967 1.7294,-3.54942 0.6704,-4.60844 -1.059,-1.05902 -2.2167,-0.67013 -4.5608,1.53208 -1.7279,1.62324 -3.1416,3.69704 -3.1416,4.60844 0,2.85972 4.8462,1.80386 7.032,-1.53208 z m 20.6055,-5.81772 c 1.3175,-2.46183 0.4268,-7.24309 -1.3494,-7.24309 -1.2598,0 -3.7881,6.90093 -3.7881,10.33959 0,2.08923 0.2973,2.21983 1.9433,0.85377 1.0687,-0.88701 2.5062,-2.66463 3.1942,-3.95027 z m -12.1544,-3.8878 c 1.8978,-2.54202 2.158,-3.71421 1.0665,-4.80571 -1.0915,-1.0915 -1.9305,-1.03952 -3.4398,0.2131 -2.8133,2.33475 -4.6192,6.05626 -3.678,7.57913 1.1501,1.86099 3.1801,0.85913 6.0513,-2.98652 z m 80.1235,-4.60529 c 0.4032,-2.40625 0.9835,-5.21875 1.2894,-6.25 2.2551,-7.601 10.8354,-65.18531 9.8584,-66.16225 -1.3617,-1.36173 -4.1599,4.04868 -5.3749,10.39236 -0.6736,3.51719 -2.093,12.01989 -3.1543,18.89489 -1.0613,6.875 -3.0472,18.6875 -4.4131,26.25 -1.3659,7.5625 -2.5012,16.26116 -2.5228,19.33036 -0.034,4.88214 0.1874,5.35134 1.7724,3.75 0.9965,-1.0067 2.1417,-3.79911 2.5449,-6.20536 z m -62.154,2.1875 c 1.8439,-2.28891 3.2184,-9.6875 1.7998,-9.6875 -1.881,0 -3.5828,2.76726 -4.4202,7.1875 -0.7887,4.1629 0.3815,5.27929 2.6204,2.5 z m -10.0956,-6.15539 c 3.3693,-3.16532 3.7743,-6.03211 0.8521,-6.03211 -1.9413,0 -6.7091,4.42941 -6.7091,6.23293 0,1.00426 1.3915,2.51707 2.3153,2.51707 0.3567,0 1.9505,-1.22305 3.5417,-2.71789 z m 78.8999,-2.59461 c 0.7861,-1.54687 2.314,-8.15625 3.3954,-14.6875 1.0813,-6.53125 2.7594,-16.09375 3.7291,-21.25 0.9697,-5.15625 2.0261,-11.625 2.3475,-14.375 0.3214,-2.75 1.1856,-8.375 1.9205,-12.5 1.9017,-10.67464 1.8011,-13.80495 -0.3855,-11.99026 -2.0776,1.72421 -3.7377,8.28427 -5.7234,22.61526 -1.5463,11.1603 -7.0972,45.68038 -8.2913,51.5625 -0.8417,4.14645 1.0213,4.5336 3.0077,0.625 z m -59.4888,-1.875 c 2.1557,-2.4747 3.6195,-8.82995 2.2313,-9.68786 -1.5113,-0.93403 -4.6625,3.47461 -5.5846,7.81286 -0.955,4.4933 0.4084,5.25565 3.3533,1.875 z m -8.7659,-10.56031 c -2.184,-2.18399 -8.2123,3.84431 -7.001,7.00097 0.7562,1.97063 1.2845,1.78812 4.6947,-1.62211 3.0391,-3.03909 3.5213,-4.16382 2.3063,-5.37886 z m 81.0198,-16.7074 c 5.9824,-32.20043 9.6497,-55.54479 8.726,-55.54479 -3.0095,0 -5.1778,5.94904 -7.5432,20.6958 -1.4274,8.89856 -3.9723,23.77295 -5.6555,33.0542 -1.6831,9.28125 -3.0578,18.82366 -3.0547,21.20536 0,3.88503 0.2019,4.13388 1.916,2.41979 1.1374,-1.13746 3.4081,-9.97106 5.6114,-21.83036 z m -60.3345,11.25911 c 0,-3.61097 -1.0802,-3.86036 -3.7526,-0.8664 -1.7739,1.9874 -2.705,5.32309 -2.3288,8.34289 0.3101,2.48905 6.0814,-4.60623 6.0814,-7.47649 z m -12.2002,-1.16364 c 2.7095,-3.26467 -0.4874,-5.4564 -3.7077,-2.54198 -3.3384,3.0212 -3.5253,7.52256 -0.2393,5.76395 1.2597,-0.67415 3.0359,-2.12404 3.947,-3.22197 z m 79.3082,-13.14026 c 10.6413,-64.59558 10.0092,-60 8.2527,-60 -0.661,0 -1.8149,2.27688 -2.5643,5.05974 -1.8097,6.7208 -11.2339,63.13853 -11.2339,67.25161 0,2.81851 0.2259,2.99398 1.7947,1.39401 0.987,-1.0067 2.6749,-7.17411 3.7508,-13.70536 z m -58.0741,7.55353 c 1.5472,-2.89103 1.6845,-7.55353 0.2224,-7.55353 -2.0155,0 -5.1684,4.56055 -5.9888,8.66243 -0.781,3.90508 -0.684,4.04811 1.8315,2.70182 1.4609,-0.78185 3.2316,-2.49667 3.9349,-3.81073 z m -10.8259,-8.05247 c -0.9946,-1.77727 -1.5959,-1.56466 -4.6807,1.65524 -2.384,2.4884 -3.2656,4.40823 -2.7005,5.8809 0.7375,1.922 1.3036,1.72181 4.6807,-1.65525 2.8737,-2.87374 3.5541,-4.35549 2.7005,-5.88089 z m 76.0568,-2.80762 c 0.6481,-3.33764 1.4201,-8.31844 1.7155,-11.06844 0.2953,-2.75 2.4613,-15.96875 4.8132,-29.375 2.3519,-13.40625 4.0362,-24.62276 3.7429,-24.9256 -2.829,-2.92036 -8.8899,22.24649 -12.9265,53.6756 -0.6623,5.15625 -1.5766,12.1875 -2.0318,15.625 -0.7813,5.90063 -0.7064,6.13504 1.3403,4.19344 1.1924,-1.13112 2.6983,-4.78736 3.3464,-8.125 z m -57.4546,2.80553 c 2.7028,-3.72112 4.2104,-9.49897 2.4786,-9.49897 -2.1459,0 -6.4763,6.38137 -6.4763,9.54358 0,3.71618 1.2765,3.70193 3.9977,-0.0446 z m -10.9148,-4.45241 c 2.1581,-2.38471 1.9097,-6.29656 -0.3999,-6.29656 -1.3278,0 -5.183,5.54583 -5.183,7.45602 0,2.13133 3.2076,1.46517 5.5829,-1.15946 z m 75.6671,-6.68207 c 0,-3.24098 7.468,-48.55148 8.1965,-49.7301 1.3022,-2.1071 1.8647,-16.13439 0.647,-16.13439 -1.5344,0 -1.8107,1.11288 -5.1213,20.625 -1.3998,8.25 -3.6062,21.1875 -4.9031,28.75 -1.2969,7.5625 -2.6858,16.28125 -3.0863,19.375 l -0.7283,5.625 2.4978,-2.95097 c 1.3737,-1.62305 2.4977,-4.12484 2.4977,-5.55954 z m -53.8053,-3.09448 c 1.0008,-2.84481 1.4097,-5.5823 0.9087,-6.08328 -1.3599,-1.35988 -5.1837,4.67068 -5.534,8.72763 -0.4506,5.21982 2.4401,3.56712 4.6253,-2.64435 z m -11.6812,-4.73483 c -0.7438,-1.93848 -1.2494,-1.78737 -4.5276,1.35331 -2.9076,2.78566 -3.3849,3.90331 -2.2505,5.27009 1.1997,1.44557 1.9542,1.22006 4.5275,-1.35332 2.0417,-2.04167 2.8043,-3.8273 2.2506,-5.27008 z m 72.1763,-6.16018 c 2.4949,-12.55972 5.5767,-31.97999 7.141,-45 0.6608,-5.5 1.4578,-10.70312 1.7711,-11.5625 0.3133,-0.85937 0.063,-1.5625 -0.5569,-1.5625 -1.5571,0 -2.3421,2.91569 -3.7279,13.84584 -0.656,5.17427 -2.0364,13.59758 -3.0674,18.71847 -1.7307,8.59561 -3.8161,22.10019 -5.2985,34.31069 -1.0083,8.30494 1.5315,2.36081 3.7386,-8.75 z m -53.2734,4.0625 c 1.8785,-2.40085 2.7351,-7.10086 1.4401,-7.90121 -0.9524,-0.58863 -4.8565,6.48442 -4.8565,8.79856 0,1.24548 2.1899,0.67029 3.4164,-0.89735 z m -8.8335,-5.9375 c 1.7843,-2.23219 0.1435,-4.39214 -2.551,-3.35816 -2.6663,1.02316 -6.1641,6.72838 -5.1405,8.38462 0.8641,1.3982 4.4064,-0.91671 7.6915,-5.02646 z m 66.271,-3.98437 c -0.399,-0.99717 -0.6952,-0.70098 -0.7552,0.75521 -0.054,1.3177 0.2412,2.05599 0.6565,1.64062 0.4154,-0.41536 0.4598,-1.4935 0.099,-2.39583 z m -48.2725,-1.85467 c 2.1134,-5.55875 0.5584,-7.87927 -1.7682,-2.63861 -2.4172,5.44476 -2.4869,5.97765 -0.7822,5.97765 0.7045,0 1.8522,-1.50256 2.5504,-3.33904 z m -11.2874,-1.08893 c 1.1769,-1.41813 1.2314,-2.29663 0.206,-3.32203 -1.6563,-1.65635 -5.25,0.75861 -5.25,3.52805 0,2.31231 3.0576,2.18742 5.044,-0.20603 z m -11.2896,-2.45229 c 0.881,-1.06159 1.275,-2.25702 0.8755,-2.65652 -0.8959,-0.89592 -373.37988,-2.08613 -373.37988,-1.19307 0,3.63079 6.94395,3.86122 135,4.47985 71.15625,0.34375 153.34368,0.77685 182.63878,0.96245 46.7702,0.2963 53.459,0.10213 54.8656,-1.59271 z m 17.5662,-4.68224 c 2.6277,-3.1499 3.1288,-5.9375 1.0673,-5.9375 -2.0473,0 -5.9394,5.31274 -5.2357,7.14669 0.8487,2.21155 1.4634,2.03322 4.1684,-1.20919 z m 12.9207,0.83526 c 0.4173,-1.08747 0.7587,-3.1251 0.7587,-4.52805 0,-2.12567 -0.3125,-2.29146 -1.875,-0.99471 -2.0151,1.67242 -2.6047,7.5 -0.7587,7.5 0.6139,0 1.4577,-0.88975 1.875,-1.97724 z m -20.6281,-7.39776 c 2.6759,-2.75 8.9783,-9.5 14.0054,-15 5.0271,-5.5 17.1688,-18.48543 26.9814,-28.85649 9.8126,-10.37106 19.1104,-20.49606 20.6618,-22.5 1.5514,-2.00394 4.0959,-5.04401 5.6545,-6.75573 1.5585,-1.71173 2.8337,-3.53986 2.8337,-4.0625 0,-0.52265 -3.0937,-0.95028 -6.875,-0.95028 -3.7812,0 -6.875,-0.5625 -6.875,-1.25 0,-0.6875 3.0606,-1.25 6.8012,-1.25 3.7407,0 7.1496,-0.56355 7.5753,-1.25234 1.3896,-2.24848 -4.789,-3.22996 -16.0201,-2.54484 l -11.0187,0.67218 2.5999,2.7803 c 5.7096,6.10597 5.8213,12.18776 0.3323,18.10675 -7.0378,7.58919 -16.2749,9.79361 -54.0199,12.8918 l -23.125,1.89814 -3.75,4.09199 c -10.5902,11.55595 -33.4686,23.99117 -54.6343,29.69563 -5.9863,1.61342 -10.6381,3.17964 -10.3372,3.4805 0.6709,0.67093 4.8538,0.89687 22.159,1.1969 7.3906,0.12815 13.4375,0.74653 13.4375,1.37419 0,0.64781 -13.9159,1.32335 -32.1875,1.5625 -22.4525,0.29388 -32.9436,0.88238 -34.68748,1.94579 -2.85658,1.74194 -5.39393,1.66485 66.14568,2.00932 33.9953,0.1637 45.0189,0.58553 45.4029,1.73739 0.3973,1.19155 -32.4909,1.39151 -151.77068,0.92275 -83.75285,-0.32914 -166.50153,-0.74611 -183.88595,-0.9266 -17.38443,-0.18049 -34.54068,-0.0199 -38.125,0.35704 l -6.516952,0.6852 3.899772,2.10566 c 3.53664,1.90958 11.38607,2.11279 84.29542,2.18229 44.21759,0.0421 80.52689,0.20619 80.68731,0.36454 0.16042,0.15836 50.96142,0.28792 112.89108,0.28792 l 112.5995,0 4.8651,-5 z m -13.6132,-0.625 c 0,-0.6875 0.5625,-1.25 1.25,-1.25 0.6875,0 1.25,0.5625 1.25,1.25 0,0.6875 -0.5625,1.25 -1.25,1.25 -0.6875,0 -1.25,-0.5625 -1.25,-1.25 z m 64.375,-78.75 c -0.4249,-0.6875 0.1044,-1.25 1.1762,-1.25 1.0719,0 1.9488,0.5625 1.9488,1.25 0,0.6875 -0.5293,1.25 -1.1762,1.25 -0.6469,0 -1.5239,-0.5625 -1.9488,-1.25 z m -22.5321,77.56208 c 2.6591,-5.14209 2.4514,-7.19216 -0.4615,-4.55602 -2.4801,2.2445 -4.2923,8.24394 -2.4901,8.24394 0.5745,0 1.9027,-1.65956 2.9516,-3.68792 z m -11.6288,-2.13082 c 2.6096,-2.36165 2.9672,-4.18126 0.8218,-4.18126 -1.7447,0 -6.0359,3.69241 -6.0359,5.19374 0,1.73687 2.7706,1.19888 5.2141,-1.01248 z m -295.33424,0.30945 c -0.27767,-0.26251 -5.0248,-1.39275 -10.54919,-2.51162 -8.34822,-1.6908 -19.42996,-2.04581 -65.625,-2.1024 -30.56936,-0.0375 -56.958772,-0.025 -58.643152,0.0276 -4.70132,0.14692 -1.45425,2.48438 5.02714,3.61889 5.46721,0.95699 130.766982,1.89104 129.790202,0.96753 z m 315.28604,-5.93197 c 2.4547,-2.83031 3.1624,-7.30874 1.155,-7.30874 -1.701,0 -5.0709,5.16906 -5.0709,7.77814 0,2.93278 1.0772,2.80366 3.9159,-0.4694 z m -196.41588,-2.08084 c 3.78125,-0.73955 12.47715,-1.95564 19.32421,-2.70241 20.91527,-2.28111 48.43517,-10.30478 68.80077,-20.05952 13.5513,-6.49082 20.193,-11.61847 23.125,-17.85367 3.0434,-6.47203 8.5002,-8.3522 24.375,-8.39865 41.6147,-0.12175 63.125,-5.18754 63.125,-14.86624 0,-3.8435 -4.9953,-10.09741 -8.0653,-10.09741 -1.472,0 -1.9393,1.41989 -1.9538,5.9375 -0.01,3.26563 -0.4324,6.5271 -0.9375,7.24772 -6.3951,9.12388 -35.5602,12.21291 -53.0455,5.61834 -8.4038,-3.16951 -12.2479,-8.19271 -12.2479,-16.00487 0,-6.40896 -1.0366,-6.78988 -15.6768,-5.76078 -11.0336,0.77559 -11.9813,0.64143 -18.1119,-2.56419 -7.459,-3.90018 -9.3903,-3.44866 -4.1807,0.97741 1.9769,1.67962 4.9348,5.54121 6.5731,8.5813 2.736,5.07706 2.9061,6.39902 2.0876,16.22412 -0.8812,10.57925 -0.9566,10.76765 -6.8666,17.16268 -5.0674,5.48316 -6.4618,6.34398 -9.1738,5.66331 -2.6859,-0.67411 -3.2644,-0.33458 -3.612,2.11989 -0.5807,4.1003 -10.0382,8.86617 -14.3449,7.22875 -2.7259,-1.03639 -3.223,-0.75393 -4.3469,2.47027 -1.0452,2.9982 -2.3508,3.89995 -7.4,5.11125 -5.64,1.353 -6.4089,1.25119 -9.6015,-1.2715 l -3.4706,-2.74227 -0.3822,3.74797 c -0.4086,4.0076 -2.61463,5.20429 -9.65214,5.23604 -5.45087,0.0246 -9.34064,-3.1211 -9.34064,-7.55381 0,-2.84579 -0.56626,-3.67913 -2.5,-3.67913 -2.65866,0 -3.20361,1.2393 -1.40161,3.1875 0.60411,0.65312 1.46636,3.25964 1.91611,5.79224 l 0.81774,4.60475 -5.97863,0.81189 c -3.28824,0.44653 -6.67041,0.90564 -7.51595,1.02026 -2.91194,0.39467 -9.08037,-4.71873 -9.08406,-7.53036 -0.005,-3.38019 -1.72465,-4.55198 -5.10663,-3.47858 -2.20615,0.7002 -2.52197,1.66425 -2.17631,6.64319 l 0.40434,5.82411 -7.5,0 -7.5,0 -2.5,-5.2672 c -2.05062,-4.32041 -3.13167,-5.27535 -6.01409,-5.3125 -3.44401,-0.0444 -3.4978,0.0634 -2.69726,5.40174 0.95398,6.36161 -0.0557,7.15724 -7.56276,5.9588 -4.63925,-0.74061 -5.05557,-1.15331 -6.15347,-6.1001 -0.85455,-3.8503 -1.7975,-5.30574 -3.4375,-5.30574 -1.7999,0 -2.25992,1.00883 -2.25992,4.95602 0,5.66137 -2.8951,8.11991 -8.04088,6.82839 -2.54651,-0.63912 -3.24992,-1.80254 -3.9861,-6.59275 -0.88377,-5.75072 -0.90549,-5.773 -1.91457,-1.965 -1.57933,5.95986 -5.09908,8.48155 -10.43996,7.47959 -5.05418,-0.94818 -7.41914,-4.95206 -6.07897,-10.29173 1.27801,-5.09201 -3.30427,-3.18202 -5.00334,2.08548 -1.29255,4.0072 -1.86638,4.40774 -6.82578,4.76436 -3.49314,0.25119 -6.5318,-0.34265 -8.5628,-1.67341 -2.83554,-1.85791 -3.06608,-2.61041 -2.3213,-7.57686 0.72486,-4.83378 0.54089,-5.51409 -1.49121,-5.51409 -1.53663,0 -2.72129,1.36955 -3.51409,4.0625 -1.64216,5.578 -6.3782,7.73969 -13.03167,5.94809 -3.72088,-1.00193 -5.21358,-2.14465 -5.78727,-4.43039 -0.82347,-3.28098 -1.7756,-3.78045 -3.68956,-1.93554 -2.53016,2.4389 -9.10152,1.98962 -12.36184,-0.84519 -1.76036,-1.53061 -3.20066,-3.34916 -3.20066,-4.04121 0,-0.69203 -1.40239,-1.25826 -3.11642,-1.25826 -4.99822,0 -13.13358,-4.05411 -13.13358,-6.54488 0,-1.265 -0.9326,-2.20711 -2.1875,-2.2098 -2.82699,-0.006 -10.3125,-4.56272 -10.3125,-6.27756 0,-0.72545 -1.17402,-2.90695 -2.60895,-4.84777 -2.16874,-2.93339 -2.60396,-5.31269 -2.57947,-14.10138 0.0277,-9.93706 0.30781,-11.03985 4.65995,-18.34582 2.54677,-4.27528 5.67628,-8.33291 6.95448,-9.01699 4.8313,-2.58564 2.07158,-3.51982 -3.68962,-1.24898 -8.29019,3.26769 -14.89945,7.07528 -21.23008,12.23063 -7.6298,6.21335 -9.36345,9.39584 -9.36345,17.18865 0,21.76139 29.83638,39.61632 85.98214,51.45415 3.16383,0.66706 35.53052,4.98766 48.75,6.5076 13.07882,1.50375 70.5434,0.91737 79.375,-0.80995 z m 185.07098,-1.55054 c 4.7923,-4.9024 3.4392,-7.61291 -1.4581,-2.921 -3.1958,3.06183 -4.8041,6.74364 -2.9458,6.74364 0.367,0 2.3487,-1.72019 4.4039,-3.82264 z m -353.82098,1.78084 c 13.81237,-0.86126 14.1793,-0.956 9.375,-2.42039 -3.55231,-1.08279 -20.15822,-1.57052 -57.35319,-1.68456 -28.794252,-0.0883 -52.841122,-0.46208 -53.437502,-0.83065 -0.59637,-0.36858 -1.08431,-0.10762 -1.08431,0.57986 0,2.03452 2.43948,2.96962 9.86556,3.78163 10.7523,1.17574 76.455552,1.58294 92.634442,0.57411 z m -11.192,-8.4002 c -2.4592,-2.4592 -15.11875,-3.12684 -60.995502,-3.21675 -30.26918,-0.0593 -46.5625,0.34615 -46.5625,1.15875 0,0.6875 0.14063,1.33226 0.3125,1.4328 0.97696,0.57147 49.881782,1.70534 76.903292,1.78299 21.03661,0.0605 31.17366,-0.32634 30.34221,-1.15779 z m 385.43728,-0.2958 c 0.4196,-1.0933 0.4466,-2.49955 0.06,-3.125 -1.2744,-2.0621 -2.7543,-1.1869 -3.3612,1.9878 -0.6702,3.50596 2.0347,4.43774 3.3013,1.1372 z m -123.7315,-1.93568 c 3.8424,-1.47041 6.9862,-3.15791 6.9862,-3.75 0,-1.57158 -1.0728,-1.26563 -9.375,2.67348 -8.8992,4.22239 -7.4906,4.85716 2.3888,1.07652 z m 112.4159,-1.33443 c 0.9904,-3.78758 0.048,-4.31157 -2.922,-1.62403 -3.1416,2.84313 -3.1955,4.38194 -0.1535,4.38194 1.3764,0 2.6538,-1.14555 3.0755,-2.75791 z m 18.3203,-6.14514 c 0,-1.29083 -0.5806,-2.34695 -1.2903,-2.34695 -1.4987,0 -3.6967,5.15003 -2.8266,6.6232 0.9428,1.59637 4.1169,-1.70061 4.1169,-4.27625 z m -407.8496,2.1833 c -2.84024,-2.21531 -18.63758,-2.95532 -69.650382,-3.26273 -32.47863,-0.19572 -39.09596,0.0501 -37.78181,1.40329 2.46872,2.54214 11.06183,2.99944 62.15681,3.30785 40.718302,0.24579 47.182392,0.039 45.275382,-1.44841 z m 290.9746,-0.78025 c 0.4249,-0.6875 -0.1044,-1.25 -1.1762,-1.25 -1.0718,0 -1.9488,0.5625 -1.9488,1.25 0,0.6875 0.5293,1.25 1.1762,1.25 0.647,0 1.5239,-0.5625 1.9488,-1.25 z m 105.2683,-4.52336 c -1.1986,-1.19865 -4.763,2.0684 -3.8566,3.53495 0.4516,0.73066 1.5553,0.43211 2.7243,-0.73688 1.0809,-1.08085 1.5904,-2.33998 1.1323,-2.79807 z m -218.79623,1.96782 c 11.1252,-1.48542 29.70981,-5.2962 40.61497,-8.3281 4.91189,-1.36562 7.26574,-2.63087 7.02502,-3.7761 -0.19913,-0.94727 -0.82348,-1.55197 -1.38747,-1.34379 -1.34767,0.49748 -3.81535,-3.94736 -2.77119,-4.99152 0.44416,-0.44415 1.26143,-0.0731 1.81617,0.82442 0.73975,1.19695 1.199,0.90388 1.72289,-1.09947 0.42495,-1.62499 1.28881,-2.37637 2.13256,-1.8549 0.83798,0.51792 1.69918,-0.19771 2.10488,-1.74923 0.9503,-3.63375 2.8951,-3.29837 2.8951,0.49923 0,1.71875 0.5957,3.125 1.3238,3.125 0.7281,0 1.0118,-0.50473 0.6306,-1.12161 -1.035,-1.6746 0.6799,-8.94292 1.928,-8.17157 0.5929,0.36644 1.5987,2.46669 2.2351,4.66722 1.115,3.85572 1.1611,3.78237 1.2698,-2.02078 0.1002,-5.35127 0.3806,-5.93671 2.5187,-5.25811 1.8382,0.58344 2.5018,0.0902 2.8125,-2.0905 0.2236,-1.56976 1.3909,-3.04173 2.594,-3.27104 1.706,-0.32515 2.2211,0.49744 2.3401,3.73724 0.1144,3.11199 0.5063,2.27261 1.5625,-3.34585 0.7755,-4.125 1.8644,-8.20225 2.42,-9.06055 0.5555,-0.8583 1.3392,-5.48713 1.7416,-10.28628 0.6556,-7.82003 0.421,-9.18166 -2.2601,-13.11841 -1.6454,-2.41597 -3.6947,-4.39652 -4.5541,-4.40122 -2.0284,-0.0112 -1.9219,1.28611 0.3523,4.29287 4.1613,5.50175 0.8633,20.52585 -5.8124,26.47851 -8.998,8.02344 -28.61916,15.14537 -56.60038,20.54431 -15.99735,3.08666 -62.85247,3.47081 -80.127,0.65693 -37.44757,-6.0999 -49.89103,-10.4898 -65.25221,-23.02015 -6.53399,-5.32987 -8.99232,-12.79515 -6.7157,-20.3938 1.63046,-5.44201 1.08066,-7.74848 -0.94487,-3.96376 -2.95365,5.51895 -3.04988,11.483 -0.27132,16.81379 1.49176,2.86201 2.59605,6.94832 2.45399,9.0807 -0.14208,2.13239 -0.10975,6.12706 0.0719,8.87706 l 0.3302,5 1.199,-6.57601 c 0.65945,-3.61681 1.62444,-6.31309 2.14443,-5.99171 0.51998,0.32136 1.07271,4.11155 1.22828,8.42262 0.27757,7.6917 1.17613,10.67794 2.2816,7.5826 0.98912,-2.76951 2.8497,-1.66202 2.8497,1.69624 0,2.3831 0.50383,3.0654 1.875,2.53922 1.14214,-0.43827 1.875,-0.003 1.875,1.11627 0,2.5716 2.20684,2.29796 2.83662,-0.35173 0.41331,-1.73901 0.80551,-1.49501 1.91295,1.19012 2.92962,7.10334 24.05533,13.37973 60.25043,17.90022 15.32654,1.91416 50.79593,2.21744 63.34705,0.54162 z M 184.95027,672.30936 c 0,-0.99067 0.5625,-2.14887 1.25,-2.57377 0.6875,-0.4249 1.25,0.38565 1.25,1.80123 0,1.41557 -0.5625,2.57377 -1.25,2.57377 -0.6875,0 -1.25,-0.81055 -1.25,-1.80123 z m 253.74998,31.80123 c 0,-0.6875 -0.248,-1.25 -0.5512,-1.25 -0.3032,0 -0.8989,0.5625 -1.3238,1.25 -0.4249,0.6875 -0.1768,1.25 0.5512,1.25 0.7281,0 1.3238,-0.5625 1.3238,-1.25 z m -306.45542,-1.9337 c 0.23075,-0.20006 -0.81358,-1.0237 -2.32075,-1.83031 -3.57283,-1.91213 -109.973812,-3.24431 -109.973812,-1.37693 0,0.68386 0.70313,1.69846 1.5625,2.25466 2.99033,1.93538 108.551042,2.84347 110.732062,0.95258 z m 238.95542,-1.07427 c 0,-2.39257 -0.5115,-2.87423 -2.49998,-2.35422 -3.06839,0.8024 -3.12732,1.48538 -0.3125,3.62213 2.87158,2.17981 2.81248,2.20642 2.81248,-1.26791 z m 72.5,0.50797 c 0,-0.6875 -0.5625,-1.25 -1.25,-1.25 -0.6875,0 -1.25,0.5625 -1.25,1.25 0,0.6875 0.5625,1.25 1.25,1.25 0.6875,0 1.25,-0.5625 1.25,-1.25 z m 113.2655,-1.91401 c 1.1403,-1.7402 1.6673,-3.56833 1.1712,-4.0625 -0.9389,-0.93538 -5.6867,4.16994 -5.6867,6.11498 0,2.18372 2.4778,1.05744 4.5155,-2.05248 z m -11.1968,-1.2649 c 0.4071,-1.0609 0.3624,-2.30663 -0.099,-2.76829 -1.0238,-1.02376 -4.7592,1.19135 -5.4368,3.224 -0.7406,2.22201 4.6796,1.77583 5.536,-0.45571 z m -423.72183,-3.50126 c 0.51685,-0.51687 0.26239,-1.89713 -0.56548,-3.06728 -7.7444,-10.94646 -8.24648,-17.41316 -2.30306,-29.66281 4.35257,-8.97081 10.86373,-16.29571 18.36484,-20.65999 10.02974,-5.83548 30.07476,-14.47987 39.90685,-17.2098 3.58621,-0.99572 1.9523,-1.23774 -9.0625,-1.34234 -7.39063,-0.0702 -13.4375,-0.62686 -13.4375,-1.23706 0,-0.6102 7.94096,-1.52061 17.64659,-2.02314 26.96152,-1.39598 18.29965,-3.02748 -16.28864,-3.06803 l -30.51706,-0.0358 -8.5016,5.93071 c -4.67589,3.26189 -10.63072,7.50742 -13.23295,9.43454 -2.60224,1.92711 -9.231342,6.53765 -14.731342,10.24565 -17.20695,11.60061 -28.90498,19.82575 -35.18918,24.74228 -3.33345,2.60798 -10.51872,7.67048 -15.96728,11.25 -5.44855,3.57953 -10.13605,7.21135 -10.41667,8.07073 -0.39583,1.21225 4.69685,1.5625 22.71897,1.5625 14.65277,0 23.22916,0.46151 23.22916,1.25 0,0.79421 -9.70834,1.25 -26.625,1.25 -25.79168,0 -29.625,0.51192 -29.625,3.95627 0,1.25613 17.06387,1.68139 64.64106,1.611 21.458832,-0.0318 39.438942,-0.4806 39.955792,-0.99745 z M 38.700268,681.61059 c 0,-0.6875 1.1582,-1.25 2.57378,-1.25 1.41557,0 2.22612,0.5625 1.80122,1.25 -0.4249,0.6875 -1.5831,1.25 -2.57377,1.25 -0.99068,0 -1.80123,-0.5625 -1.80123,-1.25 z m 108.125002,-60 c -0.4249,-0.6875 0.10438,-1.25 1.17623,-1.25 1.07182,0 1.94877,0.5625 1.94877,1.25 0,0.6875 -0.5293,1.25 -1.17623,1.25 -0.64692,0 -1.52387,-0.5625 -1.94877,-1.25 z m 243.55178,71.30382 c 0.9057,-4.52876 6.3541,-7.75918 10.4709,-6.20833 3.1246,1.17705 4.4934,-0.122 3.3282,-3.15844 -0.5684,-1.48114 0.285,-2.4414 3.1209,-3.51185 2.1468,-0.81031 3.9032,-2.08766 3.9032,-2.83855 0,-0.75089 1.125,-2.57279 2.5,-4.04869 1.375,-1.47589 2.5,-3.79875 2.5,-5.16192 0,-1.36318 0.5894,-2.84277 1.3098,-3.28797 0.7972,-0.49268 0.063,-2.05582 -1.875,-3.99422 -1.7516,-1.75163 -3.1848,-3.85189 -3.1848,-4.66726 0,-1.45898 -9.426,-8.33389 -10.2697,-7.49024 -0.238,0.238 -0.075,4.81077 0.3631,10.16172 0.4377,5.35095 0.2502,11.70484 -0.4166,14.11977 -1.2209,4.42191 -12.0013,16.29358 -16.2393,17.8832 -4.1828,1.56893 -2.5523,4.72925 2.9688,5.75396 0.4297,0.0797 1.1139,-1.51828 1.5205,-3.55118 z m 163.2363,-3.08628 c 4.2424,-4.51585 1.9269,-6.75052 -2.5502,-2.46118 -1.9871,1.90375 -3.6129,3.91863 -3.6129,4.4775 0,2.04506 3.3893,0.93622 6.1631,-2.01632 z m 15.0869,-3.91631 c 0,-1.07183 -0.5625,-1.60113 -1.25,-1.17623 -0.6875,0.4249 -1.25,1.30185 -1.25,1.94877 0,0.64693 0.5625,1.17623 1.25,1.17623 0.6875,0 1.25,-0.87695 1.25,-1.94877 z m -248.75352,-4.45849 c 7.9043,-0.73452 15.2168,-1.78008 16.25,-2.32349 1.03319,-0.5434 6.23791,-1.9515 11.56604,-3.1291 l 9.6875,-2.1411 0,-4.24953 c 0,-2.33723 0.5625,-4.24952 1.25,-4.24952 0.6875,0 1.25,0.84375 1.25,1.875 0,1.03125 0.62807,1.875 1.39572,1.875 0.81474,0 1.14705,-1.30081 0.79834,-3.125 -0.76008,-3.9761 2.13485,-4.23645 3.47471,-0.3125 0.87275,2.55596 1.00729,2.44195 1.47499,-1.25 0.53369,-4.21289 1.99182,-5.19989 3.69342,-2.5 0.6491,1.02982 1.2227,0.28408 1.6826,-2.1875 0.5503,-2.95735 1.2825,-3.68706 3.464,-3.45224 2.2838,0.24584 2.7662,-0.33034 2.7662,-3.30376 0,-1.98084 0.7127,-3.875 1.5837,-4.20923 0.871,-0.33423 2.3296,-3.97037 3.2414,-8.0803 1.5431,-6.95555 1.4765,-7.82801 -0.9627,-12.60923 -1.4413,-2.82517 -3.8305,-5.78422 -5.3094,-6.57569 l -2.6889,-1.43904 2.693,4.35729 c 3.9387,6.37292 3.6055,15.1221 -0.8196,21.5226 -12.61252,18.24294 -70.75103,29.47574 -119.20232,23.0308 -18.59991,-2.47414 -41.17974,-7.75474 -45.85026,-10.7227 -1.61705,-1.02759 -4.00768,-1.58916 -5.3125,-1.24795 -1.30482,0.34122 -2.3724,0.11056 -2.3724,-0.51257 0,-0.62314 -0.84375,-1.13298 -1.875,-1.13298 -1.03125,0 -1.875,-0.81055 -1.875,-1.80123 0,-0.99067 -0.64454,-2.19957 -1.4323,-2.68645 -1.01369,-0.62648 -1.18063,0.11763 -0.57117,2.5458 0.51911,2.0683 0.26502,4.14927 -0.63973,5.23942 -1.1368,1.36976 -1.14985,2.15941 -0.0539,3.25543 0.79586,0.79587 1.44702,2.39758 1.44702,3.55937 0,5.73488 33.35677,14.63375 64.375,17.17387 13.61555,1.115 37.4007,0.61585 56.87146,-1.19347 z m 33.75354,-11.09274 c 0,-0.6875 0.5625,-1.25 1.25,-1.25 0.6875,0 1.25,0.5625 1.25,1.25 0,0.6875 -0.5625,1.25 -1.25,1.25 -0.6875,0 -1.25,-0.5625 -1.25,-1.25 z m -177.5,11.40305 c 0,-0.60331 -0.90235,-1.84582 -2.00522,-2.76112 -3.02348,-2.50927 -4.31158,-6.93553 -5.03591,-17.30468 -0.36096,-5.16748 -0.92632,-9.83233 -1.25636,-10.36634 -1.38038,-2.23351 -4.4148,-0.65621 -7.84362,4.07715 -3.04883,4.20878 -3.47995,5.6647 -2.59312,8.75694 1.22858,4.28381 4.70883,9.01033 9.285,12.60995 1.75958,1.38408 3.19923,3.31943 3.19923,4.30078 0,1.06988 1.25117,1.78427 3.125,1.78427 1.71875,0 3.125,-0.49362 3.125,-1.09695 z m 311.56248,0.2691 c -0.8594,-0.34676 -2.2656,-0.34676 -3.125,0 -0.8594,0.34676 -0.1562,0.63049 1.5625,0.63049 1.7188,0 2.4219,-0.28373 1.5625,-0.63049 z m 73.4626,-1.07736 c 0.8696,-1.04786 1.3003,-2.1861 0.957,-2.52942 -1.132,-1.13196 -4.7321,0.91712 -4.7321,2.69337 0,2.29322 1.8007,2.21502 3.7751,-0.16395 z m -41.2751,-1.84479 c 2.5122,-0.80454 2.6348,-1.008 0.625,-1.03754 -1.375,-0.0203 -3.625,0.44668 -5,1.03754 -3.1853,1.36876 0.101,1.36876 4.375,0 z m 8.75,-2.5 c 0,-0.6875 -0.5625,-1.25 -1.25,-1.25 -0.6875,0 -1.25,0.5625 -1.25,1.25 0,0.6875 0.5625,1.25 1.25,1.25 0.6875,0 1.25,-0.5625 1.25,-1.25 z m 38.5104,-2.59375 c -0.2463,-0.73906 -0.9823,-1.34375 -1.6354,-1.34375 -0.6531,0 -1.389,0.60469 -1.6354,1.34375 -0.2464,0.73906 0.4896,1.34375 1.6354,1.34375 1.1459,0 1.8818,-0.60469 1.6354,-1.34375 z m -60.5332,-6.5186 c 1.6113,-1.17816 2.0964,-2.94539 1.8014,-6.5625 l -0.4036,-4.95015 -14.375,-0.73174 c -10.4317,-0.53101 -16.2609,-1.4738 -21.25,-3.43687 -3.7812,-1.48781 -7.2969,-2.70542 -7.8125,-2.70576 -0.5156,-3.4e-4 -0.9375,2.44345 -0.9375,5.43063 0,6.65502 1.8133,8.47495 11.875,11.91831 8.8791,3.03867 27.5156,3.66068 31.1022,1.03808 z m -188.60218,-2.18856 c 5.5,-0.69472 13.51562,-2.17595 17.8125,-3.29163 l 7.8125,-2.02851 0,-4.86674 c 0,-5.75552 2.88496,-9.39345 7.99155,-10.07731 1.9714,-0.264 4.28331,-1.43588 5.13758,-2.60416 0.91737,-1.25458 2.38583,-1.80467 3.58704,-1.34372 1.47513,0.56605 2.03383,0.069 2.03383,-1.80931 0,-1.42436 1.03401,-3.14313 2.2978,-3.8195 2.21521,-1.18555 2.7299,-4.69884 2.91662,-19.90916 0.0646,-5.26325 -9.83759,-13.29261 -20.49134,-16.61573 -1.9102,-0.59582 -5.16058,-1.60656 -7.22308,-2.24606 -5.88,-1.82318 -4.41233,-0.3685 3.3238,3.29438 24.08174,11.40217 21.0769,31.81557 -6.0683,41.225 -14.56027,5.04707 -26.2601,6.64336 -48.6919,6.64336 -28.48103,0 -48.17258,-4.07864 -62.07859,-12.85811 -11.88394,-7.50284 -14.83086,-16.89428 -8.07897,-25.74647 1.87332,-2.45605 3.50503,-5.14 3.62602,-5.96433 0.2838,-1.93368 -11.49675,6.50703 -13.92971,9.98057 -2.56959,3.66861 -2.30578,9.45433 0.65232,14.30605 2.01275,3.30121 2.49903,6.32296 2.51447,15.625 0.0131,7.90748 0.40001,10.94294 1.23086,9.65729 0.66645,-1.03125 1.22034,-5.39063 1.23086,-9.6875 0.0113,-4.36224 0.57117,-7.8125 1.26914,-7.8125 0.6875,0 1.25,1.40625 1.25,3.125 0,2.01755 0.70139,3.125 1.97916,3.125 1.08855,0 1.72136,0.70312 1.40625,1.5625 -0.3151,0.85937 -1.20572,1.42187 -1.97916,1.25 -0.77344,-0.17188 -1.40625,0.8125 -1.40625,2.1875 0,1.38889 0.83334,2.5 1.875,2.5 1.03125,0 1.875,0.5625 1.875,1.25 0,0.6875 -0.88288,1.25 -1.96194,1.25 -1.31963,0 -1.83116,0.92077 -1.5625,2.8125 0.3539,2.49187 2.19528,3.26479 16.1525,6.77994 8.66419,2.1821 21.03919,4.4321 27.5,5 14.4457,1.26978 44.54184,0.8062 57.99694,-0.89335 z m 20.625,-11.82409 c 0,-1.71875 0.5625,-3.125 1.25,-3.125 0.6875,0 1.25,1.40625 1.25,3.125 0,1.71875 -0.5625,3.125 -1.25,3.125 -0.6875,0 -1.25,-1.40625 -1.25,-3.125 z m 173.96428,6.875 c -0.2623,-2.75 -0.699,-5 -0.9706,-5 -0.2715,0 -0.4937,2.25 -0.4937,5 0,2.75 0.4368,5 0.9706,5 0.5337,0 0.7559,-2.25 0.4937,-5 z M 196.20027,650.03938 c 0,-0.69229 -1.10003,-3.03858 -2.44449,-5.21397 -3.81951,-6.18011 -4.37726,-13.01526 -1.51181,-18.52732 2.74196,-5.27453 1.91366,-6.08358 -1.9196,-1.875 -5.13956,5.64277 -5.70644,8.04185 -3.48235,14.73791 1.12716,3.3936 2.59177,6.50539 3.25468,6.91508 0.6629,0.4097 0.88554,1.75225 0.49477,2.98346 -0.55491,1.74839 -0.0186,2.23855 2.44916,2.23855 1.7378,0 3.15964,-0.56641 3.15964,-1.25871 z m -15.36592,-6.22672 c -0.29899,-1.55488 -0.55498,-0.57707 -0.56885,2.17293 -0.0139,2.75 0.23076,4.02219 0.54362,2.82707 0.31286,-1.19511 0.32421,-3.44511 0.0252,-5 z m 322.5534,5.76007 c 1.5469,-0.41454 2.8125,-1.44763 2.8125,-2.29575 0,-1.04569 -3.5205,-1.79353 -10.9375,-2.32339 -11.5373,-0.8242 -22.5221,-3.52606 -27.4421,-6.74977 -3.3125,-2.17043 -4.5577,-1.6874 -3.4036,1.32023 1.3983,3.64377 13.2132,8.34944 23.7523,9.46008 5.4482,0.57416 10.4684,1.11106 11.1559,1.19312 0.6875,0.082 2.5156,-0.18997 4.0625,-0.60452 z M 207.314,640.88399 c 0.14878,-5.40789 -0.2174,-7.95238 -1.0687,-7.42622 -1.54938,0.95756 -1.76186,15.65282 -0.22632,15.65282 0.58779,0 1.17055,-3.70198 1.29502,-8.2266 z m 349.44875,7.16457 c -4.0168,-3.59236 -15.3557,-5.74077 -27.9437,-5.29453 -2.8971,0.10262 -2.9264,0.19477 -0.8076,2.53607 1.2093,1.33623 3.6871,2.6582 5.5063,2.93771 6.5251,1.00257 24.4122,0.86464 23.245,-0.17925 z M 201.07554,635.40472 c 0.14123,-4.83678 -0.21414,-8.79413 -0.78973,-8.79413 -1.44223,0 -5.33554,6.79889 -5.33554,9.31744 0,2.93321 3.6637,9.63344 4.86247,8.89255 0.55332,-0.34195 1.12157,-4.5791 1.2628,-9.41586 z m 108.40614,7.39023 c 2.04435,-0.77251 2.51222,-1.75812 2.0306,-4.27761 l -0.62584,-3.27381 -17.65558,0.65385 c -17.13872,0.63471 -32.82789,-1.02555 -41.75124,-4.4182 -2.4908,-0.947 -3.11973,-0.712 -3.66394,1.36908 -0.36135,1.38178 -1.43514,2.51233 -2.3862,2.51233 -3.77125,0 -1.51914,3.70819 2.95829,4.87094 5.78257,1.50167 18.39956,3.75403 23.4375,4.18401 6.97627,0.5954 34.98161,-0.60983 37.65641,-1.62059 z m -3.6641,-1.98371 c -0.99866,-0.99866 0.13024,-2.95065 1.70646,-2.95065 0.64693,0 1.17623,0.84375 1.17623,1.875 0,1.93301 -1.47495,2.48337 -2.88269,1.07565 z m 154.13267,0.68366 c 0,-0.62387 -6.8625,-1.13431 -15.25,-1.13431 -9.5803,0 -14.8085,0.43921 -14.0625,1.18136 2.3332,2.32109 29.3125,2.27779 29.3125,-0.047 z m -142.49998,-1.65707 c 0,-2.80994 -1.42205,-5.76845 -2.46335,-5.12489 -1.26157,0.77969 -0.0561,6.89765 1.35907,6.89765 0.60735,0 1.10428,-0.79775 1.10428,-1.77276 z m 57.49998,-3.43558 c 0,-6.14082 -0.593,-5.9659 -1.7658,0.52084 -0.5365,2.96761 -0.368,4.6875 0.4592,4.6875 0.7186,0 1.3066,-2.34375 1.3066,-5.20834 z m 133.1827,2.24886 c 10.1614,-2.7061 12.0219,-4.10188 11.5778,-8.68607 -0.3071,-3.17015 -1.3173,-4.43499 -4.9672,-6.21938 -13.3544,-6.52868 -42.974,-4.99561 -46.343,2.39865 -1.8181,3.99015 -0.5452,6.23442 5.1975,9.16414 9.0907,4.63774 24.1856,6.09879 34.5349,3.34266 z M 325.8165,634.44688 c -0.31692,-1.21622 -0.59707,-0.52379 -0.62255,1.53871 -0.0255,2.0625 0.23383,3.05757 0.57624,2.21129 0.3424,-0.84629 0.36324,-2.53379 0.0464,-3.75 z m 204.44625,3.83586 c -0.8594,-0.34676 -2.2656,-0.34676 -3.125,0 -0.8594,0.34676 -0.1562,0.63049 1.5625,0.63049 1.7188,0 2.4219,-0.28373 1.5625,-0.63049 z m -70.3125,-1.63819 c 0,-0.70617 -0.1406,-1.69841 -0.3125,-2.20495 -0.3334,-0.98253 -42.2219,-0.71121 -43.2131,0.27989 -0.323,0.32306 0.76,1.10247 2.4066,1.73201 4.2813,1.63673 41.119,1.80968 41.119,0.19305 z m -109.06248,-7.6031 c 4.12029,-3.86173 4.54928,-4.83593 4.09796,-9.30586 -0.45165,-4.47317 -11.20965,-13.61747 -13.42006,-11.40706 -0.52714,0.52714 1.84557,19.89387 2.81411,22.96956 0.74566,2.36794 2.06006,1.91218 6.50799,-2.25664 z m -120.48981,-2.11836 c 1.23673,-7.48219 0.93805,-19.0625 -0.49167,-19.0625 -4.16172,0 -11.20602,8.18425 -11.20602,13.01942 0,2.40952 7.24346,10.73058 9.34094,10.73058 0.87007,0 1.93061,-2.10937 2.35675,-4.6875 z m 231.73979,3.54945 c 0.1719,-0.0616 0.3125,-0.86826 0.3125,-1.79265 0,-1.34464 -6.7778,-1.85665 -33.8976,-2.56073 -18.6437,-0.48402 -34.1904,-0.5872 -34.5483,-0.22927 -1.1793,1.17929 6.2544,3.31521 15.2373,4.37807 6.5894,0.77965 50.8134,0.9507 52.8961,0.20458 z m -155.30056,-1.58025 c 1.19764,-1.20042 -0.59007,-6.2082 -1.92232,-5.38483 -0.60798,0.37575 -0.78855,1.50893 -0.40128,2.51817 0.38729,1.00922 0.12275,1.83496 -0.58794,1.83496 -0.71063,0 -1.48123,-0.9822 -1.71242,-2.18266 -0.3741,-1.94259 -1.86228,-2.1386 -13.52915,-1.78204 -13.60671,0.41585 -29.66536,-2.01363 -36.42909,-5.51128 -2.16625,-1.12021 -3.694,-1.30995 -4.18256,-0.51943 -0.42334,0.68497 0.0293,1.24541 1.00573,1.24541 1.18861,0 1.59017,0.96912 1.21492,2.93207 -0.59075,3.09033 0.37309,3.53259 15.28219,7.01255 5.56349,1.29858 39.93923,1.16285 41.26192,-0.16292 z m 5.61308,-3.45793 c 0,-0.64692 -0.5625,-1.52387 -1.25,-1.94877 -0.6875,-0.4249 -1.25,0.10438 -1.25,1.17623 0,1.07182 0.5625,1.94877 1.25,1.94877 0.6875,0 1.25,-0.5293 1.25,-1.17623 z m 154.37498,-3.82377 c 0,-1.62015 -4.8421,-1.89044 -35.625,-1.98861 -37.0015,-0.118 -48.3427,0.39586 -46.626,2.11263 1.3187,1.31869 14.1727,1.75512 51.626,1.75284 26.3881,-10e-4 30.625,-0.26126 30.625,-1.87686 z M 282.45753,590.52737 c 0.004,-15.56048 0.0751,-79.64254 0.15801,-142.40459 0.0829,-62.76205 -0.10812,-114.37171 -0.42456,-114.68814 -1.08956,-1.08957 -18.51424,-5.9672 -19.12721,-5.35422 -0.72325,0.72326 -2.92369,31.51657 -3.7805,52.90517 -0.33049,8.25 -1.11035,20.0625 -1.73301,26.25 -1.09717,10.90255 -1.69749,19.84851 -1.67764,25 0.005,1.375 -0.72351,14.3125 -1.6196,28.75 -0.89608,14.4375 -1.687,32.3809 -1.75763,39.87423 -0.0706,7.49332 -0.33551,13.96207 -0.58866,14.375 -0.25316,0.41292 -0.82371,10.87577 -1.26789,23.25077 -0.44418,12.375 -1.00636,25.3125 -1.24927,28.75 -0.2429,3.4375 -0.84933,13.47107 -1.34759,22.29683 -0.49826,8.82575 -0.97586,16.982 -1.06133,18.125 -0.32671,4.36951 24.43293,13.27152 32.5807,11.71398 l 2.88892,-0.55225 0.008,-28.29178 z m -157.87522,22.23889 c 5.12033,-3.48937 10.25095,-7.13193 11.40133,-8.09457 1.1504,-0.96264 4.90233,-3.73269 8.33763,-6.15568 3.4353,-2.42298 5.80679,-4.40542 5.26996,-4.40542 -0.53682,0 -5.24297,2.95313 -10.45811,6.5625 -27.15144,18.7914 -26.67435,18.4375 -24.85503,18.4375 0.54698,0 5.18388,-2.85495 10.30422,-6.34433 z m 185.94976,4.43418 c 5.02891,-0.81588 9.34168,-2.75999 13.70195,-6.17659 4.614,-3.61541 0.99982,-3.18967 -10.66584,1.25638 -11.78079,4.48994 -17.25826,7.6262 -11.11791,6.36584 1.71875,-0.35279 5.35556,-1.00333 8.0818,-1.44563 z m 136.67898,-0.14139 c 10.5247,-0.3952 18.8958,-0.9585 18.6026,-1.25177 -0.5232,-0.5232 -35.7403,-12.58347 -97.73838,-33.47104 -17.1875,-5.79057 -33.02863,-10.8878 -35.20251,-11.32715 l -3.95252,-0.79883 -0.46962,8.51267 c -0.25829,4.68196 -0.2617,9.17906 -0.008,9.99355 0.25412,0.81448 3.36909,2.08896 6.92212,2.83217 7.34088,1.53554 18.41114,5.71693 23.96009,9.05005 2.0625,1.2389 6,2.29418 8.75,2.34508 2.75002,0.0509 6.12502,0.57595 7.50002,1.16681 2.1073,0.90556 1.8735,1.08809 -1.4887,1.16214 -3.9497,0.087 -6.43156,1.95997 -4.7816,3.60852 0.4703,0.46989 12.1985,0.89988 26.0627,0.95552 34.5146,0.13855 40.8326,0.36903 40.8326,1.48971 0,0.53122 -12.7969,1.05957 -28.4375,1.17409 -15.6406,0.1145 -29.4908,0.24236 -30.7781,0.28411 -1.8933,0.0614 -2.0551,0.41987 -0.8467,1.87587 0.8216,0.98998 2.7186,1.97435 4.2156,2.1875 5.4512,0.77619 48.2119,0.91115 66.8575,0.211 z M 291.74539,473.5182 c 0.58828,-131.92999 0.39118,-142.01057 -2.71605,-138.90336 -1.74365,1.74366 -2.7104,277.90395 -0.98264,280.69954 0.83205,1.34629 1.28614,1.12656 2.07417,-1.00367 0.55489,-1.50001 1.28592,-64.85664 1.62452,-140.79251 z m -95.85762,139.95505 c 0.85938,-0.29381 1.5625,-1.12385 1.5625,-1.84454 0,-2.00505 -64.00445,-1.13399 -64.67504,0.88018 -0.37625,1.1301 3.4413,1.61408 14.7901,1.875 17.66869,0.40622 46.0342,-0.12833 48.32244,-0.91064 z m 115,-3.36285 c 7.04687,-2.89165 12.8125,-5.66338 12.8125,-6.15942 0,-1.05763 -25.0639,8.51264 -26.8125,10.23794 -2.21596,2.18642 1.0539,1.23385 14,-4.07852 z m -1.08935,-4.86003 c 11.49084,-4.88247 15.94827,-7.38978 13.13737,-7.38978 -2.64631,0 -26.05956,9.84713 -26.49105,11.14159 -0.68742,2.06226 0.36855,1.76558 13.35368,-3.75181 z m -100.42175,1.27706 c 0.45316,-0.73324 0.52101,-1.63609 0.15077,-2.00634 -0.37025,-0.37024 -14.76792,-0.91639 -31.99482,-1.21367 -30.45519,-0.52555 -36.33235,0.0159 -36.33235,3.34715 0,1.74188 67.09861,1.61675 68.1764,-0.12714 z m 125.5736,-0.46807 c 0,-0.30317 -0.5625,-0.89887 -1.25,-1.32377 -0.6875,-0.4249 -1.25,-0.17685 -1.25,0.55123 0,0.72807 0.5625,1.32377 1.25,1.32377 0.6875,0 1.25,-0.24805 1.25,-0.55123 z m -24.08609,-7.12371 c 7.05985,-2.84622 12.83609,-5.65872 12.83609,-6.25 0,-1.54236 -1.14758,-1.36266 -8.14265,1.27503 -15.79095,5.95441 -20.60735,8.07507 -20.60735,9.07338 0,1.90612 2.82421,1.17878 15.91391,-4.09841 z m -94.03891,1.42494 c 0.48738,-0.78861 -2.51162,-1.25 -8.125,-1.25 -5.61339,0 -8.61239,0.46139 -8.125,1.25 0.4249,0.6875 4.08115,1.25 8.125,1.25 4.04385,0 7.7001,-0.5625 8.125,-1.25 z m -22.5,-1.32171 c -7.25096,-1.49982 -42.81477,-1.44152 -43.75,0.0718 -0.50621,0.81906 7.76392,1.20044 23.98873,1.10625 16.60355,-0.0964 23.114,-0.48448 19.76127,-1.17797 z m 116.15921,-5.90446 c 7.51256,-3.24436 13.88756,-6.60195 14.16666,-7.46133 0.80318,-2.47305 -1.71422,-1.90774 -16.15791,3.62841 -10.46303,4.0104 -13.54296,5.71605 -13.54296,7.5 0,1.27 0.42187,2.29169 0.9375,2.27042 0.51562,-0.0213 7.08415,-2.69315 14.59671,-5.9375 z m -81.15921,1.25747 c 1.94439,-1.13185 -5.4869,-1.46373 -33.4375,-1.49329 -19.76562,-0.0209 -35.9375,0.43047 -35.9375,1.00303 0,0.57257 8.82826,1.15083 19.61835,1.28502 10.7901,0.13419 19.85445,0.48006 20.14301,0.76863 1.16774,1.16773 27.29106,-0.21139 29.61364,-1.56339 z m 72.5,-5.29259 c 1.375,-0.56901 6.58536,-2.57846 11.57857,-4.46543 8.46998,-3.20087 12.72803,-6.00836 11.29148,-7.44489 -0.56903,-0.56903 -5.09356,1.02235 -14.12005,4.9663 -2.0625,0.90116 -6.42188,2.62994 -9.6875,3.84172 -3.26563,1.21178 -5.9375,2.95292 -5.9375,3.86918 0,1.64482 1.4338,1.48489 6.875,-0.76688 z m -56.68873,-13.73871 c 0.4462,-7.90625 1.10468,-18.12882 1.46328,-22.71684 0.74902,-9.58317 0.0996,-10.28336 -8.31139,-8.96187 -5.40344,0.84896 -14.70253,4.39207 -17.41027,6.63364 -0.85409,0.70702 -9.84733,6.77203 -19.98498,13.4778 -10.13766,6.70574 -18.43454,12.61415 -18.4375,13.12977 -0.002,0.51563 1.11959,0.9375 2.49459,0.9375 1.375,0 2.5,0.60046 2.5,1.33435 0,0.79515 -2.09554,1.17399 -5.18579,0.9375 -3.27704,-0.25077 -5.38161,0.16576 -5.71785,1.1317 -0.40024,1.14982 4.03382,1.6144 17.89565,1.875 10.85692,0.20411 18.599,0.86 18.84464,1.59645 0.27067,0.81156 -7.28664,1.11177 -21.54599,0.85591 -16.78012,-0.30107 -22.43298,-0.006 -23.95493,1.25 -1.74579,1.44086 -1.46475,1.74081 2.27362,2.42659 2.34611,0.43037 20.01565,0.71162 39.26565,0.625 l 35,-0.1575 0.81127,-14.375 z m -23.93627,8.75 c 0,-0.6875 0.5625,-1.25 1.25,-1.25 0.6875,0 1.25,0.5625 1.25,1.25 0,0.6875 -0.5625,1.25 -1.25,1.25 -0.6875,0 -1.25,-0.5625 -1.25,-1.25 z m -55,-1.25 c 0,-0.6875 -0.24805,-1.25 -0.55123,-1.25 -0.30317,0 -0.89887,0.5625 -1.32377,1.25 -0.4249,0.6875 -0.17685,1.25 0.55123,1.25 0.72807,0 1.32377,-0.5625 1.32377,-1.25 z m 146.25,-4.19103 13.125,-5.32418 0,-52.4299 c 0,-58.10726 -0.0789,-59.7819 -2.76902,-58.74963 -4.67963,1.79575 -7.85598,2.13144 -7.85598,0.83025 0,-0.76203 0.87168,-1.38551 1.93707,-1.38551 3.61034,0 9.70152,-3.86141 8.30078,-5.26215 -0.89923,-0.89923 -4.43204,-0.28899 -11.47082,1.98136 -11.38317,3.67164 -11.26703,3.64772 -11.26703,2.32184 0,-0.52741 4.64062,-2.57482 10.3125,-4.54979 11.47665,-3.9962 14.75445,-6.17431 12.57356,-8.3552 -1.00905,-1.00905 -5.26486,-0.14825 -15.77695,3.19114 l -14.39516,4.57291 -0.66674,5.86245 c -0.36671,3.22434 -0.48897,23.58119 -0.2717,45.23744 0.63596,63.38881 0.48915,60 2.59949,60 1.03125,0 1.875,0.5625 1.875,1.25 0,0.6875 -0.84375,1.25 -1.875,1.25 -1.03125,0 -1.875,0.90935 -1.875,2.02079 0,2.00269 1.43656,1.97255 6.5625,-0.13771 1.52166,-0.62644 2.1875,-0.31937 2.1875,1.00887 0,1.10358 -1.57658,2.25569 -3.73567,2.7299 -3.5556,0.78094 -5.88681,2.67235 -4.72532,3.83384 0.29665,0.29664 4.56116,-0.86579 9.4767,-2.58316 15.20648,-5.31284 15.88264,-3.32074 0.85929,2.53162 -4.8125,1.87471 -9.28438,3.90071 -9.9375,4.50221 -2.73893,2.52244 4.47692,0.65657 16.8125,-4.34738 z m -5.6124,-113.32936 c 0.43182,-0.69871 1.30877,-0.94677 1.94877,-0.55122 1.7338,1.07153 1.41051,1.82161 -0.78515,1.82161 -1.07182,0 -1.59545,-0.57168 -1.16362,-1.27039 z m -8.7626,-3.72961 c 0.4249,-0.6875 1.0206,-1.25 1.32377,-1.25 0.30318,0 0.55123,0.5625 0.55123,1.25 0,0.6875 -0.5957,1.25 -1.32378,1.25 -0.72807,0 -0.97612,-0.5625 -0.55122,-1.25 z m 13.41598,-13.89369 c 7.37879,-2.30515 13.72535,-4.9974 14.10348,-5.98277 1.58746,-4.13685 -2.00111,-3.98164 -16.13531,0.69791 -12.99367,4.30194 -14.50878,5.10813 -14.50895,7.72021 -1.3e-4,1.80962 0.59286,2.69637 1.5623,2.33627 0.85937,-0.31924 7.59968,-2.46645 14.97848,-4.77162 z m -0.73917,-8.11719 c 11.5028,-3.65452 14.19819,-4.95967 14.19819,-6.875 0,-1.30026 -0.38133,-2.36412 -0.84738,-2.36412 -1.87647,0 -26.13546,8.0215 -27.59012,9.12298 -1.61625,1.22383 -2.17574,4.62702 -0.76069,4.62702 0.441,0 7.191,-2.02989 15,-4.51088 z m 4.51069,-9.26318 c 7.7093,-2.33497 9.6875,-3.42515 9.6875,-5.33877 0,-1.39714 -0.65466,-2.16366 -1.5625,-1.82946 -0.85938,0.31635 -6.90625,2.35417 -13.4375,4.52848 -13.51584,4.49956 -15.65183,5.59786 -14.50272,7.45716 0.56531,0.91469 2.25393,0.82823 5.47264,-0.28021 2.56029,-0.88169 9.01445,-2.92343 14.34258,-4.5372 z m -1.62598,-6.33869 c 6.84859,-2.39151 11.31348,-4.62878 11.31348,-5.66895 0,-2.15419 -0.17193,-2.14811 -8.64014,0.3056 -14.69484,4.2579 -21.35986,7.03806 -21.35986,8.90976 0,2.40357 3.60895,1.71864 18.68652,-3.54641 z m -1.676,-6.44975 c 7.3636,-2.3054 12.97884,-4.73831 12.98269,-5.625 0.004,-0.85937 -0.69634,-1.5567 -1.55571,-1.54961 -3.55802,0.0294 -27.69963,8.39849 -28.15344,9.75992 -0.7761,2.32829 2.79516,1.7763 16.72646,-2.58531 z m -2.2059,-5.95766 c 13.06789,-4.08173 16.25378,-5.5881 14.82989,-7.01199 -1.20542,-1.20542 -28.79146,7.62799 -29.38533,9.40957 -0.6871,2.06132 1.35913,1.72426 14.55544,-2.39758 z m 1.36075,-6.62563 c 7.1722,-2.25304 13.29583,-4.86281 13.60807,-5.79951 0.34933,-1.04804 -0.0989,-1.45799 -1.16538,-1.06585 -0.95319,0.35047 -7.77554,2.54949 -15.16078,4.88669 -7.38523,2.3372 -13.43211,4.67134 -13.43749,5.18696 -0.0164,1.57127 2.58528,1.05461 16.15558,-3.20829 z m 0.62761,-5.60406 c 7.51739,-2.54382 13.89239,-5.32827 14.16667,-6.18765 0.59817,-1.87425 -2.50115,-2.01028 -7.7459,-0.33996 -19.8401,6.31851 -23.21375,7.79805 -23.21375,10.18051 0,1.75194 2.29838,1.25198 16.79298,-3.6529 z m 1.01717,-7.2285 c 8.65826,-2.88505 13.43985,-5.10866 13.43985,-6.25 0,-2.52741 -1.74973,-2.26901 -15.69339,2.31754 -13.3798,4.40109 -15.55661,5.41341 -15.55661,7.23458 0,2.04348 3.98487,1.30467 17.81015,-3.30212 z m -0.29642,-7.22386 c 12.1683,-3.93455 17.20915,-7.04779 11.41155,-7.04779 -3.79878,0 -25.52898,7.46015 -27.63065,9.48582 -3.06149,2.95082 1.82469,2.21633 16.2191,-2.43803 z m -1.24062,-6.4854 c 7.54979,-2.44068 13.72689,-4.97193 13.72689,-5.625 0,-0.65306 -0.42083,-1.18739 -0.93515,-1.18739 -2.69023,0 -27.81485,9.12616 -27.81485,10.10335 0,1.59367 -0.26854,1.6525 15.02311,-3.29096 z m -6.0075,-4.19819 c 3.63516,-1.3122 9.56251,-3.10604 13.17189,-3.98632 3.76547,-0.91835 6.5625,-2.29894 6.5625,-3.23919 0,-2.24568 -1.11219,-2.1095 -12.86962,1.57582 -14.00841,4.39088 -17.13038,5.65516 -17.13038,6.93714 0,1.69918 3.05218,1.31639 10.26561,-1.28745 z m 13.38938,-10.44063 c 5.18297,-1.50287 8.52542,-4.67357 4.92672,-4.67357 -3.9254,0 -27.33171,8.16936 -27.33171,9.53942 0,1.48523 1.99962,1.05096 22.40499,-4.86585 z m -6.77999,-4.18983 c 11.25822,-3.26922 15.8674,-5.51464 11.1875,-5.45015 -3.5051,0.0483 -27.93233,8.48235 -24.9375,8.61023 1.375,0.0587 7.5625,-1.36332 13.75,-3.16008 z m 3.4375,-6.32273 c 5.32812,-1.66088 9.6875,-3.5578 9.6875,-4.21539 0,-1.75071 -2.00243,-1.47266 -13.32212,1.84987 -10.07157,2.95619 -15.42788,5.18863 -15.42788,6.43013 0,1.02773 8.62795,-0.81197 19.0625,-4.06461 z m -4.0625,-4.89386 c 10.9675,-2.98415 16.73261,-5.51715 12.55703,-5.51715 -2.58603,0 -24.27045,6.52396 -25.61953,7.70788 -1.8824,1.65195 0.26056,1.29255 13.0625,-2.19073 z m 0.50546,-5.10003 c 10.91457,-3.19952 15.83214,-5.42813 11.93204,-5.40756 -2.57962,0.0136 -25.94259,6.82886 -26.9858,7.87207 -1.72533,1.72533 3.90565,0.80346 15.05376,-2.46451 z m 0.01,-5.43137 c 6.81561,-2.05466 12.58124,-3.73575 12.81305,-3.73575 0.23183,0 0.42149,-0.62268 0.42149,-1.38374 0,-0.82528 -0.88284,-1.02272 -2.1875,-0.48921 -1.20313,0.49199 -7.39063,2.3219 -13.75,4.06648 -6.35938,1.74458 -11.5625,3.65223 -11.5625,4.23922 0,1.53746 0.59208,1.42553 14.26601,-2.697 z m 1.68302,-5.7239 c 6.36572,-1.87299 11.38513,-3.59435 11.15424,-3.82524 -0.85877,-0.85933 -27.10272,6.25324 -27.10272,7.34546 0,0.62502 0.98437,0.85489 2.1875,0.51082 1.20312,-0.34407 7.39581,-2.15804 13.76153,-4.03104 z m -28.44848,-4.88685 c -1.71875,-0.98253 -3.8553,-1.80634 -4.74789,-1.83071 -0.89257,-0.0244 -3.95136,-1.16929 -6.79729,-2.54429 -6.1585,-2.97547 -5.95482,-2.94954 -5.95482,-0.75815 0,1.09573 3.36167,2.68276 9.0625,4.27838 10.88239,3.04589 12.56943,3.2168 8.4375,0.85477 z m 35,-4.33577 c 0,-0.66592 -0.84375,-0.88699 -1.875,-0.49126 -1.03125,0.39572 -1.875,0.94057 -1.875,1.21077 0,0.27019 0.84375,0.49126 1.875,0.49126 1.03125,0 1.875,-0.54485 1.875,-1.21077 z m -40.91344,-6.19125 c 0.46545,-1.77988 2.20293,-2.62955 6.70829,-3.28051 8.41956,-1.21651 11.69365,-3.43456 3.58015,-2.4254 -8.8586,1.10184 -15.625,3.25516 -15.625,4.97246 0,3.69319 4.40427,4.29851 5.33656,0.73345 z m 32.16344,0.52702 c 0,-1.03125 -0.84375,-1.875 -1.875,-1.875 -1.03125,0 -1.875,0.84375 -1.875,1.875 0,1.03125 0.84375,1.875 1.875,1.875 1.03125,0 1.875,-0.84375 1.875,-1.875 z"
       id="path4147"
       inkscape:connector-curvature="0" />
  </g>
</svg>
