<?xml version="1.0" encoding="UTF-8" standalone="no"?>
<!-- Created with Inkscape (http://www.inkscape.org/) -->

<svg
   xmlns:dc="http://purl.org/dc/elements/1.1/"
   xmlns:cc="http://creativecommons.org/ns#"
   xmlns:rdf="http://www.w3.org/1999/02/22-rdf-syntax-ns#"
   xmlns:svg="http://www.w3.org/2000/svg"
   xmlns="http://www.w3.org/2000/svg"
   xmlns:sodipodi="http://sodipodi.sourceforge.net/DTD/sodipodi-0.dtd"
   xmlns:inkscape="http://www.inkscape.org/namespaces/inkscape"
   width="320mm"
   height="120mm"
   viewBox="0 0 320 120"
   version="1.1"
   id="svg8"
   inkscape:version="0.92.4 (5da689c313, 2019-01-14)"
   sodipodi:docname="dcd-logo.svg"
   inkscape:export-filename="/home/ogrecooper/repos/vcs-spider/physical/assets/dcd-logo.png"
   inkscape:export-xdpi="81.279999"
   inkscape:export-ydpi="81.279999">
  <defs
     id="defs2" />
  <sodipodi:namedview
     id="base"
     pagecolor="#ffffff"
     bordercolor="#666666"
     borderopacity="1.0"
     inkscape:pageopacity="0.0"
     inkscape:pageshadow="2"
     inkscape:zoom="0.49497475"
     inkscape:cx="808.83282"
     inkscape:cy="161.04449"
     inkscape:document-units="mm"
     inkscape:current-layer="layer1"
     showgrid="false"
     inkscape:window-width="1920"
     inkscape:window-height="1043"
     inkscape:window-x="1920"
     inkscape:window-y="0"
     inkscape:window-maximized="1" />
  <metadata
     id="metadata5">
    <rdf:RDF>
      <cc:Work
         rdf:about="">
        <dc:format>image/svg+xml</dc:format>
        <dc:type
           rdf:resource="http://purl.org/dc/dcmitype/StillImage" />
        <dc:title></dc:title>
      </cc:Work>
    </rdf:RDF>
  </metadata>
  <g
     inkscape:label="Layer 1"
     inkscape:groupmode="layer"
     id="layer1"
     transform="translate(0,-177)">
    <g
       id="g4932"
       style="fill:#119900;fill-opacity:1"
       transform="translate(-68.069229,15.48385)">
      <path
         style="fill:#119900;fill-opacity:1;stroke:none;stroke-width:0.28169528;stroke-opacity:1"
         d="m 98.068949,181.51553 v 10.00043 h -9.999906 v 9.9999 h -9.999908 v 9.99991 h -9.999906 v 9.99991 9.9999 h 9.999906 v 10.00043 h 9.999908 v 9.9999 h 9.999906 v 9.99991 h 10.000421 v -9.99991 -9.9999 H 98.068949 v -10.00043 h -9.999906 v -9.9999 -9.99991 h 9.999906 v -9.99991 h 10.000421 v -9.9999 -10.00043 z"
         id="rect826"
         inkscape:connector-curvature="0" />
      <path
         id="rect4696"
         transform="scale(0.26458333)"
         d="m 484.04102,610.45312 v 453.54298 h 75.58984 37.79492 37.79492 v -37.793 h 37.79688 V 988.40625 H 710.8125 V 686.04492 H 673.01758 V 648.25 H 635.2207 v -37.79492 h -37.79492 v -0.002 h -37.79492 z m 75.58984,113.38477 h 37.79492 v 37.79688 h 37.79492 v 151.17968 h -37.79492 v 37.79688 h -37.79492 z"
         style="fill:#119900;fill-opacity:1;stroke:none;stroke-width:1.64938748;stroke-opacity:1"
         inkscape:connector-curvature="0" />
      <path
         id="rect4700-6-2-6-1"
         transform="scale(0.26458333)"
         d="M 824.19727,610.45508 V 648.25 h -37.79493 v 37.79492 h -37.79492 v 302.36133 h 37.79492 v 37.79685 h 37.79493 v 37.7949 h 37.79492 37.79687 v -37.7949 h 37.79492 v -37.79685 h 37.79493 v -75.58984 h -37.79493 v -37.79493 h -37.79492 v 75.58985 H 861.99219 824.19727 V 723.83984 h 37.79492 37.79687 v 37.79493 h 37.79492 v 37.79492 h 37.79493 V 686.04492 H 937.58398 V 648.25 h -37.79492 v -37.79492 h -37.79687 z"
         style="fill:#119900;fill-opacity:1;stroke:none;stroke-width:1.49452555;stroke-opacity:1"
         inkscape:connector-curvature="0" />
      <path
         id="rect4696-2"
         d="m 268.069,161.51624 v 119.99991 h 19.99981 9.99991 9.9999 v -9.99939 h 10.00043 v -10.00042 h 9.9999 v -79.99977 h -9.9999 v -9.99991 h -10.00043 v -9.9999 h -9.9999 v -5.3e-4 h -9.99991 z m 19.99981,29.99972 h 9.99991 v 10.00042 h 9.9999 v 39.99963 h -9.9999 v 10.00042 h -9.99991 z"
         style="fill:#119900;fill-opacity:1;stroke:none;stroke-width:0.43640044;stroke-opacity:1"
         inkscape:connector-curvature="0" />
      <path
         style="fill:#119900;fill-opacity:1;stroke:none;stroke-width:0.28169528;stroke-opacity:1"
         d="M 358.06942,261.51634 V 251.5159 h 9.99991 v -9.9999 h 9.99991 v -9.99991 h 9.9999 v -9.99991 -9.9999 h -9.9999 v -10.00042 h -9.99991 v -9.9999 h -9.99991 v -9.99991 H 348.069 v 9.99991 9.9999 h 10.00042 v 10.00042 h 9.99991 v 9.9999 9.99991 h -9.99991 V 241.516 H 348.069 v 9.9999 10.00044 z"
         id="rect826-2"
         inkscape:connector-curvature="0" />
    </g>
  </g>
</svg>
